<?xml version="1.0" standalone="no"?>
<!DOCTYPE svg PUBLIC "-//W3C//DTD SVG 1.1//EN" "http://www.w3.org/Graphics/SVG/1.1/DTD/svg11.dtd" >
<svg xmlns="http://www.w3.org/2000/svg">
<metadata>Generated by IcoMoon</metadata>
<defs>
<font id="icomoon" horiz-adv-x="1024">
<font-face units-per-em="1024" ascent="960" descent="-64" />
<missing-glyph horiz-adv-x="1024" />
<glyph unicode="&#x20;" horiz-adv-x="512" d="" />
<glyph unicode="&#xe900;" glyph-name="info" d="M554.664 704c0-23.563-19.102-42.664-42.664-42.664s-42.664 19.102-42.664 42.664 19.102 42.664 42.664 42.664 42.664-19.102 42.664-42.664zM512 149.336c-17.664 0-32 14.336-32 32v330.664h-42.664c-17.664 0-32 14.336-32 32s14.336 32 32 32h74.664c17.664 0 32-14.336 32-32v-362.664c0-17.664-14.336-32-32-32zM512-64c-282.328 0-512 229.672-512 512s229.672 512 512 512 512-229.672 512-512-229.672-512-512-512zM512 896c-247.039 0-448-200.961-448-448s200.961-448 448-448 448 200.961 448 448-200.961 448-448 448zM608 149.336h-192c-17.664 0-32 14.336-32 32s14.336 32 32 32h192c17.664 0 32-14.336 32-32s-14.336-32-32-32z" />
<glyph unicode="&#xe901;" glyph-name="share" d="M768 396.8c-67.622-0.157-127.497-33.187-164.511-83.95l-0.404-0.582-103.219 68.813c7.684 19.877 12.136 42.878 12.136 66.918s-4.452 47.042-12.576 68.224l0.44-1.305 103.219 68.813c37.559-50.453 97.026-82.78 164.043-82.78 112.627 0 203.93 91.302 203.93 203.93s-91.302 203.93-203.93 203.93c-112.627 0-203.93-91.302-203.93-203.93 0-0.31 0.001-0.619 0.002-0.928v0.048c0.374-8.222 1.179-15.892 2.407-23.419l-0.154 1.147-122.419-81.613c-36.147 32.684-84.302 52.685-137.128 52.685-113.108 0-204.8-91.692-204.8-204.8s91.692-204.8 204.8-204.8c52.826 0 100.981 20.001 137.305 52.843l-0.177-0.158 122.419-81.613c-1.074-6.38-1.879-14.050-2.237-21.836l-0.016-0.436c0-113.108 91.692-204.8 204.8-204.8s204.8 91.692 204.8 204.8c0 113.108-91.692 204.8-204.8 204.8v0zM768 806.4c56.554 0 102.4-45.846 102.4-102.4s-45.846-102.4-102.4-102.4c-56.554 0-102.4 45.846-102.4 102.4v0c0 56.554 45.846 102.4 102.4 102.4v0zM307.2 345.6c-56.554 0-102.4 45.846-102.4 102.4s45.846 102.4 102.4 102.4c56.554 0 102.4-45.846 102.4-102.4v0c0-56.554-45.846-102.4-102.4-102.4v0zM768 89.6c-56.554 0-102.4 45.846-102.4 102.4s45.846 102.4 102.4 102.4c56.554 0 102.4-45.846 102.4-102.4v0c0-56.554-45.846-102.4-102.4-102.4v0z" />
<glyph unicode="&#xe902;" glyph-name="email" d="M32 800v-704h960v704zM860.144 736l-348.144-248.672-348.144 248.672zM96 160v545.824l416-297.152 416 297.152v-545.824z" />
<glyph unicode="&#xe903;" glyph-name="down-arrow" d="M952.32 739.84l-440.32-440.32-440.32 440.32-71.68-71.68 512-512 512 512z" />
<glyph unicode="&#xe904;" glyph-name="launch" d="M0 960v-1024h1024v512h-113.778v-398.222h-796.444v796.444h398.222v113.778zM625.778 960v-113.778h204.8l-557.512-557.51 79.644-79.644 557.512 557.51v-204.8h113.778v398.222z" />
<glyph unicode="&#xe905;" glyph-name="web" d="M512 800c-194.404 0-352-157.596-352-352s157.596-352 352-352c194.404 0 352 157.596 352 352v0c-0.237 194.309-157.691 351.763-351.977 352h-0.023zM798.112 480h-127.072c-1.422 85.645-20.812 166.414-54.546 239.179l1.522-3.659c97.489-39.489 167.544-128.024 179.967-234.17l0.129-1.35zM512 160c-36.736 0-88.992 98.688-95.36 256h190.72c-6.368-157.312-58.624-256-95.36-256zM416.64 480c6.4 157.312 58.624 256 95.36 256s88.992-98.688 95.36-256zM405.984 715.52c-32.212-69.106-51.602-149.875-53.017-235.017l-0.007-0.503h-127.072c12.553 107.497 82.608 196.032 178.165 234.827l1.931 0.693zM225.888 416h127.072c1.422-85.645 20.812-166.414 54.546-239.179l-1.522 3.659c-97.489 39.489-167.544 128.024-179.967 234.17l-0.129 1.35zM618.016 180.48c32.212 69.106 51.602 149.875 53.017 235.017l0.007 0.503h127.072c-12.553-107.497-82.608-196.032-178.165-234.827l-1.931-0.693z" />
<glyph unicode="&#xe906;" glyph-name="zoom" d="M968.832 51.499l-169.344 169.344c60.083 73.045 96.512 167.522 96.512 270.507 0 236.019-191.331 427.349-427.349 427.349s-427.349-191.331-427.349-427.349c0-236.019 191.331-427.349 427.349-427.349 102.985 0 197.462 36.429 271.248 97.103l-0.741-0.591 169.344-169.344c7.665-7.41 18.12-11.977 29.641-11.977 23.564 0 42.667 19.103 42.667 42.667 0 11.521-4.567 21.976-11.989 29.653l0.012-0.012zM469.333 149.333c-188.513 0-341.333 152.82-341.333 341.333s152.82 341.333 341.333 341.333c188.513 0 341.333-152.82 341.333-341.333v0c-0.218-188.425-152.908-341.115-341.312-341.333h-0.021z" />
<glyph unicode="&#xe907;" glyph-name="account" d="M39.667 21.333c0-23.563 19.083-42.667 42.667-42.667s42.667 19.104 42.667 42.667c0 150.563 86.677 283.857 221.784 346.891 46.758-30.385 102.383-48.224 162.174-48.224 60.018 0 115.857 17.958 162.724 48.557 40.333-19.039 77.711-44.656 108.818-75.745 72.542-72.562 112.5-168.979 112.5-271.479 0-23.563 19.083-42.667 42.667-42.667s42.667 19.104 42.667 42.667c0 125.292-48.833 243.125-137.5 331.813-29.669 29.685-64.151 55.138-101.146 76.122 42.419 51.581 67.938 117.56 67.938 189.398 0 164.688-134 298.667-298.667 298.667s-298.667-133.979-298.667-298.667c0-71.664 25.414-137.482 67.646-189.008-146.466-82.464-238.271-236.542-238.271-408.326zM508.958 832c117.625 0 213.333-95.708 213.333-213.333s-95.708-213.333-213.333-213.333-213.333 95.708-213.333 213.333 95.708 213.333 213.333 213.333z" />
<glyph unicode="&#xe908;" glyph-name="more" d="M424.495 653.731c0-65.294-52.931-118.225-118.225-118.225s-118.225 52.931-118.225 118.225c0 65.294 52.931 118.225 118.225 118.225s118.225-52.931 118.225-118.225zM424.495 242.269c0-65.294-52.931-118.225-118.225-118.225s-118.225 52.931-118.225 118.225c0 65.294 52.931 118.225 118.225 118.225s118.225-52.931 118.225-118.225zM835.956 653.731c0-65.294-52.931-118.225-118.225-118.225s-118.225 52.931-118.225 118.225c0 65.294 52.931 118.225 118.225 118.225s118.225-52.931 118.225-118.225zM835.956 242.269c0-65.294-52.931-118.225-118.225-118.225s-118.225 52.931-118.225 118.225c0 65.294 52.931 118.225 118.225 118.225s118.225-52.931 118.225-118.225z" />
<glyph unicode="&#xe909;" d="M283.092 953.474c-8.84 8.54-22.929 8.293-31.469-0.547-8.329-8.625-8.329-22.297 0-30.92l473.85-473.894-473.894-473.85c-8.84-8.54-9.084-22.627-0.547-31.469 8.54-8.84 22.627-9.084 31.469-0.547 0.186 0.179 0.367 0.361 0.547 0.547l489.607 489.607c8.688 8.69 8.688 22.777 0 31.469l-489.563 489.605z" />
<glyph unicode="&#xe90a;" d="M267.335-63.75c-12.291-0.023-22.272 9.925-22.295 22.216-0.010 5.925 2.343 11.611 6.539 15.796l473.894 473.85-473.894 473.848c-8.702 8.702-8.702 22.81 0 31.513s22.81 8.702 31.513 0l489.607-489.607c8.688-8.69 8.688-22.777 0-31.469l-489.607-489.605c-4.173-4.187-9.844-6.543-15.756-6.543z" />
<glyph unicode="&#xe90b;" d="M736 264c0-167.895-136.105-304-304-304s-304 136.105-304 304c0 167.895 136.105 304 304 304s304-136.105 304-304z" />
<glyph unicode="&#xe90c;" d="M736 808c0-70.692-57.308-128-128-128s-128 57.308-128 128c0 70.692 57.308 128 128 128s128-57.308 128-128z" />
<glyph unicode="&#xe90d;" d="M400 104h-400v640h80v-32h-48v-576h368z" />
<glyph unicode="&#xe90e;" d="M496 136h192v-32h-192v32z" />
<glyph unicode="&#xe90f;" d="M448 113.376l-70.624 70.624h-313.376v640h326.624l57.376-57.376 57.376 57.376h326.624v-160h-32v128h-281.376l-70.624-70.624-70.624 70.624h-281.376v-576h294.624l57.376-57.376 57.376 57.376h150.624v-32h-137.376z" />
<glyph unicode="&#xe910;" d="M432 744h32v-496h-32v496z" />
<glyph unicode="&#xe911;" d="M128 744h128v-32h-128v32z" />
<glyph unicode="&#xe912;" d="M128 424h272v-32h-272v32z" />
<glyph unicode="&#xe913;" d="M128 488h272v-32h-272v32z" />
<glyph unicode="&#xe914;" d="M128 360h272v-32h-272v32z" />
<glyph unicode="&#xe915;" d="M128 296h272v-32h-272v32z" />
<glyph unicode="&#xe916;" d="M400 520h-272v160h272v-160zM160 552h208v96h-208v-96z" />
<glyph unicode="&#xe917;" d="M528 552h32v-32h-32v32z" />
<glyph unicode="&#xe918;" d="M528 488h32v-32h-32v32z" />
<glyph unicode="&#xe919;" d="M528 424h32v-32h-32v32z" />
<glyph unicode="&#xe91a;" d="M912 104h-192v160c0 30.784-15.184 44.432-34.416 61.712-5.552 4.992-11.072 9.984-16.192 15.328-39.6 41.424-61.392 93.616-61.392 146.96 0 114.688 93.312 208 208 208s208-93.312 208-208c0-53.36-21.792-105.552-61.392-146.96-5.104-5.344-10.64-10.336-16.192-15.328-19.232-17.28-34.416-30.928-34.416-61.712v-160zM752 136h128v128c0 45.040 24.976 67.488 45.008 85.52 4.96 4.448 9.904 8.88 14.464 13.664 23.968 25.040 52.528 67.040 52.528 124.816 0 97.040-78.96 176-176 176s-176-78.96-176-176c0-57.76 28.56-99.76 52.512-124.832 4.56-4.784 9.52-9.2 14.464-13.664 20.048-18.016 45.024-40.464 45.024-85.504v-128z" />
<glyph unicode="&#xe91b;" d="M688 216h256v-32h-256v32z" />
<glyph unicode="&#xe91c;" d="M800 120h32v-48h-32v48z" />
<glyph unicode="&#xe91d;" d="M704 488h-32c0 79.392 64.592 144 144 144v-32c-61.744 0-112-50.24-112-112z" />
<glyph unicode="&#xe91e;" d="M800 376h32v-176h-32v176z" />
<glyph unicode="&#xe91f;" d="M816 353.376l-75.312 75.312 22.624 22.624 52.688-52.688 52.688 52.688 22.624-22.624z" />
<glyph unicode="&#xe920;" d="M984.512 592c0-167.895-136.105-304-304-304s-304 136.105-304 304c0 167.895 136.105 304 304 304s304-136.105 304-304z" />
<glyph unicode="&#xe921;" d="M488.512 112c0-70.692-57.308-128-128-128s-128 57.308-128 128c0 70.692 57.308 128 128 128s128-57.308 128-128z" />
<glyph unicode="&#xe922;" d="M312.512 224h272v-32h-272v32z" />
<glyph unicode="&#xe923;" d="M776.512 512h-32v384c0 8.544-3.328 16.576-9.376 22.624s-14.080 9.376-22.624 9.376h-480c-8.544 0-16.576-3.328-22.624-9.376s-9.376-14.080-9.376-22.624v-288h-32v288c0 17.088 6.656 33.168 18.752 45.248 12.080 12.096 28.16 18.752 45.248 18.752h480c17.088 0 33.152-6.656 45.248-18.752 12.096-12.080 18.752-28.16 18.752-45.248v-384z" />
<glyph unicode="&#xe924;" d="M424.512 304h96v-32h-96v32z" />
<glyph unicode="&#xe925;" d="M376.512 832h208v-32h-208v32z" />
<glyph unicode="&#xe926;" d="M376.512 768h208v-32h-208v32z" />
<glyph unicode="&#xe927;" d="M344.512 736h-96v96h96v-96zM280.512 768h32v32h-32v-32z" />
<glyph unicode="&#xe928;" d="M376.512 704h208v-32h-208v32z" />
<glyph unicode="&#xe929;" d="M376.512 640h208v-32h-208v32z" />
<glyph unicode="&#xe92a;" d="M344.512 608h-96v96h96v-96zM280.512 640h32v32h-32v-32z" />
<glyph unicode="&#xe92b;" d="M312.512 576h272v-32h-272v32z" />
<glyph unicode="&#xe92c;" d="M312.512 512h272v-32h-272v32z" />
<glyph unicode="&#xe92d;" d="M312.512 448h208v-32h-208v32z" />
<glyph unicode="&#xe92e;" d="M312.512 384h208v-32h-208v32z" />
<glyph unicode="&#xe92f;" d="M648.512 272h-32v256c0 12.8 4.992 24.864 14.048 33.936 18.192 18.16 49.776 18.128 67.904 0 9.056-9.072 14.048-21.12 14.048-33.936v-176h-32v176c0 4.272-1.664 8.288-4.704 11.328-6.016 6.016-16.528 6.048-22.608-0.016-3.008-3.008-4.688-7.040-4.688-11.312v-256z" />
<glyph unicode="&#xe930;" d="M776.512 352h-32v64c0 4.272-1.664 8.288-4.688 11.312-6.064 6.032-16.544 6.048-22.64-0.016-3.008-3.008-4.672-7.024-4.672-11.296v-64h-32v64c0 12.816 5.008 24.88 14.064 33.936 18.208 18.16 49.76 18.128 67.872 0 9.056-9.056 14.064-21.12 14.064-33.936v-64z" />
<glyph unicode="&#xe931;" d="M840.512 352h-32v48c0 4.272-1.664 8.288-4.688 11.312-6.064 6.032-16.544 6.048-22.64-0.016-3.008-3.008-4.672-7.024-4.672-11.296v-48h-32v48c0 12.816 5.008 24.88 14.064 33.936 18.192 18.176 49.744 18.128 67.872 0 9.056-9.056 14.064-21.12 14.064-33.936v-48z" />
<glyph unicode="&#xe932;" d="M856.512 80h-32v35.28l48 112v156.72c0 4.272-1.664 8.288-4.688 11.312-6.064 6.032-16.544 6.048-22.64-0.016-3.008-3.008-4.672-7.024-4.672-11.296v-32h-32v32c0 12.816 5.008 24.88 14.064 33.936 18.208 18.176 49.76 18.112 67.872 0 9.056-9.056 14.064-21.12 14.064-33.936v-163.28l-48-112v-28.72z" />
<glyph unicode="&#xe933;" d="M664.512 80h-32v25.552c-17.936 19.040-80 89.376-80 150.096v80.352c0 12.816 5.008 24.88 14.064 33.936 18.208 18.176 49.76 18.112 67.872 0 9.056-9.056 14.064-21.12 14.064-33.936h-32c0 4.272-1.664 8.288-4.688 11.312-6.064 6.032-16.544 6.048-22.64-0.016-3.008-3.008-4.672-7.024-4.672-11.296v-80.352c0-46.768 54.352-111.376 75.312-132.336l4.688-4.688v-38.624z" />
<glyph unicode="&#xe934;" d="M888.512-64h-32v128h-224v-128h-32v128c0 8.544 3.328 16.576 9.376 22.624s14.080 9.376 22.624 9.376h224c8.544 0 16.576-3.328 22.624-9.376s9.376-14.080 9.376-22.624v-128z" />
<glyph unicode="&#xe935;" d="M664.512 32h32v-32h-32v32z" />
<glyph unicode="&#xe936;" d="M648.512 640h32v-32h-32v32z" />
<glyph unicode="&#xe937;" d="M648.512 704h32v-32h-32v32z" />
<glyph unicode="&#xe938;" d="M648.512 768h32v-32h-32v32z" />
<glyph unicode="&#xe939;" d="M648.512 832h32v-32h-32v32z" />
<glyph unicode="&#xe93a;" d="M328.512 80h-32v96c0 28.336-3.984 73.328-15.184 106.944-15.44 46.336-46.816 109.28-47.136 109.904l-1.68 3.376v131.776c0 4.272-1.664 8.288-4.688 11.312-6.048 6.048-16.576 6.048-22.624 0-3.024-3.024-4.688-7.040-4.688-11.312l-0.096-81.76-16.96-152.656-39.776-19.888-14.32 28.624 24.224 12.112 14.944 134.464v79.104c0 12.816 4.992 24.88 14.064 33.936 18.128 18.144 49.744 18.144 67.872 0 9.072-9.056 14.064-21.12 14.064-33.936v-124.272c6.928-14.080 32.944-67.952 47.184-110.672 12.416-37.248 16.816-86.336 16.816-117.056v-96h-0.016z" />
<glyph unicode="&#xe93b;" d="M136.512 80h-32v45.408l-65.024 195.088 68.432 171.104 69.44 34.72 14.304-28.64-58.56-29.28-59.552-148.896 62.96-188.912z" />
<glyph unicode="&#xe93c;" d="M360.512-64h-32v128h-224v-128h-32v128c0 8.528 3.328 16.56 9.36 22.608 6.064 6.064 14.096 9.392 22.64 9.392h224c8.56 0 16.608-3.328 22.64-9.392 6.032-6.048 9.36-14.080 9.36-22.608v-128z" />
<glyph unicode="&#xe93d;" d="M136.512 32h32v-32h-32v32z" />
<glyph unicode="&#xe93e;" d="M640 320c0-167.895-136.105-304-304-304s-304 136.105-304 304c0 167.895 136.105 304 304 304s304-136.105 304-304z" />
<glyph unicode="&#xe93f;" d="M928 544c0-70.692-57.308-128-128-128s-128 57.308-128 128c0 70.692 57.308 128 128 128s128-57.308 128-128z" />
<glyph unicode="&#xe940;" d="M208 176h-32v128c0 95.696 65.312 129.744 138.048 158.864l80 32 11.888-29.696-80-32c-78.224-31.312-117.936-59.872-117.936-129.168v-128z" />
<glyph unicode="&#xe941;" d="M848 176h-32v128c0 69.296-39.712 97.856-117.936 129.136l-80 32 11.872 29.696 80-32c72.768-29.088 138.064-63.136 138.064-158.832v-128z" />
<glyph unicode="&#xe942;" d="M416 592h32v-80h-32v80z" />
<glyph unicode="&#xe943;" d="M576 592h32v-80h-32v80z" />
<glyph unicode="&#xe944;" d="M288 256h32v-80h-32v80z" />
<glyph unicode="&#xe945;" d="M704 256h32v-80h-32v80z" />
<glyph unicode="&#xe946;" d="M496 320h32v-32h-32v32z" />
<glyph unicode="&#xe947;" d="M496 256h32v-32h-32v32z" />
<glyph unicode="&#xe948;" d="M640 347.504l-83.872 20.976 7.744 31.040 44.128-11.024v84.88l-16 16-80-80-80 80-16-16v-84.88l44.112 11.024 7.776-31.040-83.888-20.976v139.12l48 48 80-80 80 80 48-48z" />
<glyph unicode="&#xe949;" d="M496 432h32v-80h-32v80z" />
<glyph unicode="&#xe94a;" d="M672 752h-32c0 8.544-3.328 16.576-9.376 22.624s-14.080 9.376-22.624 9.376h-16c-12.832 0-24.896 5.008-33.952 14.064-1.584 1.584-3.024 3.248-4.352 5.008l-14.368-14.384c-3.008-3.008-7.072-4.688-11.328-4.688h-112c-8.544 0-16.576-3.328-22.624-9.376s-9.376-14.080-9.376-22.624h-32c0 17.088 6.656 33.168 18.752 45.248 12.080 12.096 28.16 18.752 45.248 18.752h105.376l27.312 27.312c4.576 4.576 11.44 5.936 17.44 3.472 5.984-2.48 9.872-8.32 9.872-14.784 0-4.272 1.664-8.288 4.704-11.328 3.008-3.008 7.008-4.672 11.296-4.672h16c17.088 0 33.152-6.656 45.248-18.752 12.096-12.080 18.752-28.16 18.752-45.248z" />
<glyph unicode="&#xe94b;" d="M512 544c-88.736 0-138.704 74.208-143.6 148.048-2.544 1.424-4.912 3.216-7.024 5.328-6.048 6.048-9.376 14.080-9.376 22.624v80c0 42.736 16.64 82.912 46.864 113.12 30.224 30.224 70.4 46.88 113.136 46.88s82.928-16.656 113.136-46.88c30.224-30.224 46.864-70.4 46.864-113.12v-80c0-8.56-3.328-16.608-9.392-22.64-2.112-2.112-4.464-3.888-7.008-5.312-4.88-73.84-54.864-148.048-143.6-148.048zM512 928c-34.176 0-66.336-13.328-90.512-37.504s-37.488-56.32-37.488-90.496v-80c8.832 0 16-7.168 16-16 0-49.488 30.4-128 112-128s112 78.512 112 128c0 4.24 1.68 8.32 4.688 11.312s7.056 4.688 11.312 4.688v80c0 34.176-13.312 66.32-37.488 90.496s-56.32 37.504-90.512 37.504z" />
<glyph unicode="&#xe94c;" d="M1024 96h-1024v96h1024v-96zM32 128h960v32h-960v-32z" />
<glyph unicode="&#xe94d;" d="M960-64h-32v160h-832v-160h-32v192h896z" />
<glyph unicode="&#xe94e;" d="M848-64h-32v96h-608v-96h-32v128h672z" />
<glyph unicode="&#xe94f;" d="M432-32h32v-32h-32v32z" />
<glyph unicode="&#xe950;" d="M496-32h32v-32h-32v32z" />
<glyph unicode="&#xe951;" d="M560-32h32v-32h-32v32z" />
<glyph unicode="&#xe952;" d="M960 176h-32v201.376l-91.312 91.312 22.624 22.624 100.688-100.688z" />
<glyph unicode="&#xe953;" d="M816 448c-35.296 0-64 28.704-64 64s28.704 64 64 64 64-28.704 64-64-28.704-64-64-64zM816 544c-17.648 0-32-14.352-32-32s14.352-32 32-32 32 14.352 32 32-14.352 32-32 32z" />
<glyph unicode="&#xe954;" d="M448 736c0-123.712-100.288-224-224-224s-224 100.288-224 224c0 123.712 100.288 224 224 224s224-100.288 224-224z" />
<glyph unicode="&#xe955;" d="M864 176c0-70.692-57.308-128-128-128s-128 57.308-128 128c0 70.692 57.308 128 128 128s128-57.308 128-128z" />
<glyph unicode="&#xe956;" d="M384 736h-32c0 88.224 71.776 160 160 160v-32c-70.576 0-128-57.424-128-128z" />
<glyph unicode="&#xe957;" d="M880 368h-160v32h160c61.744 0 112 50.24 112 112s-50.256 112-112 112l-3.712-0.224c-5.44-0.192-9.872 2.064-13.008 6-3.152 3.936-4.272 9.12-3.008 14 2.464 9.584 3.728 19.088 3.728 28.224 0 61.76-50.256 112-112 112-11.872 0-23.696-1.936-35.184-5.728-4.144-1.392-8.64-1.008-12.496 1.040-3.84 2.032-6.704 5.552-7.904 9.728-23.504 81.824-99.344 138.96-184.416 138.96s-160.912-57.136-184.4-138.96c-1.2-4.192-4.048-7.696-7.904-9.728-3.872-2.032-8.352-2.432-12.496-1.040-11.488 3.792-23.328 5.728-35.2 5.728-61.76 0-112-50.24-112-112 0-9.168 1.264-18.672 3.744-28.192 1.28-4.88 0.16-10.080-2.992-14.016s-7.936-6.176-13.024-6l-2.448 0.128c-0.048 0-0.096 0-0.144 0-62.976 0-113.136-50.208-113.136-111.92 0-61.76 50.24-112 112-112h160v-32h-160c-79.392 0-144 64.592-144 144 0 74.352 56.64 135.728 129.040 143.232-0.688 5.632-1.040 11.232-1.040 16.768 0 79.392 64.608 144 144 144 9.984 0 19.936-1.056 29.728-3.136 31.968 87.376 116.272 147.136 210.272 147.136 93.984 0 178.304-59.76 210.272-147.136 9.808 2.080 19.744 3.136 29.728 3.136 79.408 0 144-64.608 144-144 0-5.52-0.336-11.12-1.040-16.768 72.4-7.504 129.040-68.88 129.040-143.232 0-79.408-64.592-144-144-144z" />
<glyph unicode="&#xe958;" d="M288-64h-32l0.4 35.6 146.88 636.4h57.216l19.024-76.112-31.040-7.776-12.976 51.888h-6.784l-140.72-609.824z" />
<glyph unicode="&#xe959;" d="M768-64h-32v30.176l-140.736 609.824h-6.528l-140.736-609.824v-30.176h-32l0.4 35.6 146.864 636.4h57.472l147.264-640z" />
<glyph unicode="&#xe95a;" d="M368 432h176v-32h-176v32z" />
<glyph unicode="&#xe95b;" d="M352 368h176v-32h-176v32z" />
<glyph unicode="&#xe95c;" d="M336 304h176v-32h-176v32z" />
<glyph unicode="&#xe95d;" d="M320 240h176v-32h-176v32z" />
<glyph unicode="&#xe95e;" d="M320 176h160v-32h-160v32z" />
<glyph unicode="&#xe95f;" d="M304 112h160v-32h-160v32z" />
<glyph unicode="&#xe960;" d="M288 48h160v-32h-160v32z" />
<glyph unicode="&#xe961;" d="M576 48h160v-32h-160v32z" />
<glyph unicode="&#xe962;" d="M384 496h176v-32h-176v32z" />
<glyph unicode="&#xe963;" d="M608-64h-32v30.176l-47.6 206.224 31.2 7.2 48.4-211.6z" />
<glyph unicode="&#xe964;" d="M944 800h-32c0 61.76 50.256 112 112 112v-32c-44.112 0-80-35.888-80-80z" />
<glyph unicode="&#xe965;" d="M944 800h-32c0 44.112-35.888 80-80 80v32c61.744 0 112-50.24 112-112z" />
<glyph unicode="&#xe966;" d="M208 336h32v-32h-32v32z" />
<glyph unicode="&#xe967;" d="M208 272h32v-32h-32v32z" />
<glyph unicode="&#xe968;" d="M208 208h32v-32h-32v32z" />
<glyph unicode="&#xe969;" d="M784 336h32v-32h-32v32z" />
<glyph unicode="&#xe96a;" d="M784 272h32v-32h-32v32z" />
<glyph unicode="&#xe96b;" d="M784 208h32v-32h-32v32z" />
<glyph unicode="&#xe96c;" glyph-name="budget" d="M936 454h-310c-6.627 0-12-5.373-12-12v0-70c0-6.627 5.373-12 12-12v0h310c6.627 0 12 5.373 12 12v0 70c0 6.627-5.373 12-12 12v0zM922 384h-284v46h284zM667.126-4.8c26.516 0 48.012 21.496 48.012 48.012s-21.496 48.012-48.012 48.012c-26.516 0-48.012-21.496-48.012-48.012 0-0.001 0-0.001 0-0.002v0c0.032-26.503 21.509-47.979 48.009-48.010h0.003zM667.126 67.222c13.261 0 24.012-10.751 24.012-24.012s-10.751-24.012-24.012-24.012c-13.261 0-24.012 10.751-24.012 24.012v0c0.013 13.257 10.755 24.001 24.011 24.016h0.001zM781.026-4.8c26.516 0 48.012 21.496 48.012 48.012s-21.496 48.012-48.012 48.012c-26.516 0-48.012-21.496-48.012-48.012 0-0.001 0-0.001 0-0.002v0c0.032-26.503 21.509-47.979 48.009-48.010h0.003zM781.026 67.222c13.261 0 24.012-10.751 24.012-24.012s-10.751-24.012-24.012-24.012c-13.261 0-24.012 10.751-24.012 24.012v0c0.013 13.257 10.755 24.001 24.011 24.016h0.001zM894.928-4.8c26.516 0 48.012 21.496 48.012 48.012s-21.496 48.012-48.012 48.012c-26.516 0-48.012-21.496-48.012-48.012 0-0.001 0-0.001 0-0.002v0c0.032-26.503 21.509-47.979 48.009-48.010h0.003zM894.928 67.222c13.261 0 24.012-10.751 24.012-24.012s-10.751-24.012-24.012-24.012c-13.261 0-24.012 10.751-24.012 24.012v0c0.011 13.258 10.755 24.002 24.011 24.016h0.001zM667.126 101.15c26.516 0 48.012 21.496 48.012 48.012s-21.496 48.012-48.012 48.012c-26.516 0-48.012-21.496-48.012-48.012v0c0.031-26.504 21.508-47.981 48.009-48.012h0.003zM667.126 173.172c13.261 0 24.012-10.751 24.012-24.012s-10.751-24.012-24.012-24.012c-13.261 0-24.012 10.751-24.012 24.012 0 0.004 0 0.008 0 0.013v-0.001c0.022 13.25 10.761 23.985 24.011 24h0.001zM781.026 101.15c26.516 0 48.012 21.496 48.012 48.012s-21.496 48.012-48.012 48.012c-26.516 0-48.012-21.496-48.012-48.012v0c0.031-26.504 21.508-47.981 48.009-48.012h0.003zM781.026 173.172c13.261 0 24.012-10.751 24.012-24.012s-10.751-24.012-24.012-24.012c-13.261 0-24.012 10.751-24.012 24.012 0 0.004 0 0.008 0 0.013v-0.001c0.022 13.25 10.761 23.985 24.011 24h0.001zM894.928 101.15c26.516 0 48.012 21.496 48.012 48.012s-21.496 48.012-48.012 48.012c-26.516 0-48.012-21.496-48.012-48.012v0c0.031-26.504 21.508-47.981 48.009-48.012h0.003zM894.928 173.172c13.261 0 24.012-10.751 24.012-24.012s-10.751-24.012-24.012-24.012c-13.261 0-24.012 10.751-24.012 24.012 0 0.004 0 0.008 0 0.013v-0.001c0.020 13.251 10.76 23.986 24.011 24h0.001zM667.126 207.094c26.516 0 48.012 21.496 48.012 48.012s-21.496 48.012-48.012 48.012c-26.516 0-48.012-21.496-48.012-48.012v0c0.031-26.504 21.508-47.981 48.009-48.012h0.003zM667.126 279.118c13.261 0 24.012-10.751 24.012-24.012s-10.751-24.012-24.012-24.012c-13.261 0-24.012 10.751-24.012 24.012v0c0.016 13.255 10.757 23.996 24.010 24.012h0.002zM781.026 207.094c26.516 0 48.012 21.496 48.012 48.012s-21.496 48.012-48.012 48.012c-26.516 0-48.012-21.496-48.012-48.012v0c0.031-26.504 21.508-47.981 48.009-48.012h0.003zM781.026 279.118c13.261 0 24.012-10.751 24.012-24.012s-10.751-24.012-24.012-24.012c-13.261 0-24.012 10.751-24.012 24.012v0c0.016 13.255 10.757 23.996 24.010 24.012h0.002zM894.928 207.094c26.516 0 48.012 21.496 48.012 48.012s-21.496 48.012-48.012 48.012c-26.516 0-48.012-21.496-48.012-48.012v0c0.031-26.504 21.508-47.981 48.009-48.012h0.003zM894.928 279.118c13.261 0 24.012-10.751 24.012-24.012s-10.751-24.012-24.012-24.012c-13.261 0-24.012 10.751-24.012 24.012v0c0.015 13.255 10.756 23.997 24.011 24.012h0.001zM444.102 342h-125c-6.627 0-12-5.373-12-12s5.373-12 12-12v0h125c6.627 0 12 5.373 12 12s-5.373 12-12 12v0zM261.97 318h12.2c6.627 0 12 5.373 12 12s-5.373 12-12 12v0h-12.2c-6.627 0-12-5.373-12-12s5.373-12 12-12v0zM426.292 240h-65.276c-6.627 0-12-5.373-12-12s5.373-12 12-12v0h65.276c6.627 0 12 5.373 12 12s-5.373 12-12 12v0zM314.132 240h-52.162c-6.627 0-12-5.373-12-12s5.373-12 12-12v0h52.162c6.627 0 12 5.373 12 12s-5.373 12-12 12v0zM214 866.388c-6.627 0-12-5.373-12-12v0-4.826c0-6.627 5.373-12 12-12s12 5.373 12 12v0 4.826c0 6.627-5.373 12-12 12v0zM214 814.702c-6.627 0-12-5.373-12-12v0-158.956c0-6.627 5.373-12 12-12s12 5.373 12 12v0 158.956c0 6.627-5.373 12-12 12v0zM461.2 830.292c-97.794 0-177.072-79.278-177.072-177.072s79.278-177.072 177.072-177.072c97.794 0 177.072 79.278 177.072 177.072v0c-0.114 97.748-79.324 176.958-177.061 177.072h-0.011zM614 662h-127.050l90.564 90.564c20.987-24.347 34.446-55.712 36.467-90.15l0.019-0.414zM461.2 806.292c0.028 0 0.061 0 0.094 0 38.004 0 72.758-13.913 99.447-36.924l-0.197 0.166-99.286-99.286-78.136 114.552c22.266 13.502 49.176 21.492 77.952 21.492 0.044 0 0.089 0 0.133 0h-0.007zM461.2 500.15c-0.022 0-0.049 0-0.075 0-84.5 0-153 68.5-153 153 0 47.281 21.446 89.553 55.142 117.618l0.247 0.2 87.114-127.73c2.191-3.18 5.812-5.238 9.913-5.238 0 0 0 0 0.001 0h152.97c-8.092-77.687-73.172-137.748-152.301-137.85h-0.011zM941.218 504h-161.218v258.522c0.001 0.068 0.001 0.149 0.001 0.23 0 9.051-3.604 17.26-9.456 23.27l0.007-0.007-150.042 153.838c-6.092 6.24-14.578 10.119-23.971 10.148h-419.715c-18.155-0.112-32.829-14.855-32.829-33.025 0-0.21 0.002-0.419 0.006-0.628v0.031-32.378h-31.924c-0.206 0.005-0.449 0.007-0.692 0.007-9.062 0-17.284-3.596-23.317-9.438l0.009 0.009c-6.149-5.891-9.995-14.144-10.076-23.295v-19.283h-24.2c-0.188 0.004-0.409 0.006-0.63 0.006-9.047 0-17.249-3.614-23.242-9.478l0.006 0.006c-6.111-5.917-9.911-14.188-9.934-23.348v-797.158c0.069-18.694 15.147-33.843 33.806-34.028h516.176c11.207-13.481 27.981-22 46.744-22 0.020 0 0.039 0 0.059 0h324.433c33.569 0.001 60.781 27.213 60.782 60.782v0 436.436c-0.001 33.569-27.213 60.781-60.782 60.782v0zM614 912.182l126.186-130.182h-65.436c-16.846 0.137-32.037 7.107-42.961 18.269l-0.011 0.011c-10.989 11.102-17.778 26.379-17.778 43.242 0 0.070 0 0.14 0 0.211v-0.011zM102 851.282c0.101 2.54 1.262 4.791 3.051 6.334l0.011 0.010c1.703 1.488 3.945 2.395 6.4 2.395 0.224 0 0.446-0.008 0.666-0.022l-0.030 0.002h31.902v-742.944c-0.003-0.166-0.005-0.362-0.005-0.558 0-17.949 14.551-32.5 32.5-32.5 0.124 0 0.248 0.001 0.372 0.002h379.133v-38h-443.894c-5.525 0.291-9.918 4.749-10.106 10.274v0.018zM53.83-8c-2.712 0.075-5.144 1.216-6.902 3.018l-0.002 0.002c-1.783 1.805-2.894 4.277-2.926 7.008v797.172c0.044 2.538 1.16 4.808 2.914 6.381l0.008 0.007c1.669 1.507 3.892 2.429 6.33 2.429 0.201 0 0.401-0.006 0.599-0.019l-0.027 0.001h24.176v-751.712c0.204-18.788 15.327-33.976 34.069-34.288h443.931v-15.218c0-0.004 0-0.009 0-0.014 0-5.245 0.664-10.334 1.912-15.19l-0.092 0.422zM556 443.218v-106.726c-2.165 3.333-5.869 5.507-10.082 5.508h-44.904c-6.627 0-12-5.373-12-12s5.373-12 12-12v0h44.904c4.213 0.001 7.917 2.175 10.054 5.462l0.028 0.046v-83.508h-83.568c-6.627 0-12-5.373-12-12s5.373-12 12-12v0h83.568v-108h-379.146c-0.112-0.005-0.243-0.008-0.374-0.008-2.367 0-4.506 0.973-6.040 2.541l-0.001 0.002c-1.517 1.549-2.453 3.673-2.453 6.015 0 0.18 0.006 0.358 0.016 0.536l-0.001-0.024v799.34c-0.012 0.176-0.019 0.382-0.019 0.589 0 4.926 3.953 8.929 8.86 9.011h413.16v-82.272c0-0.052 0-0.113 0-0.174 0-46.964 37.84-85.090 84.694-85.554h81.306v-254h-139.218c-33.569-0.001-60.781-27.213-60.782-60.782v0zM980 6.782c-0.141-20.342-16.661-36.778-37.022-36.782h-325.23c-20.282 0-37.748 16.5-37.748 36.782v311.218h400zM980 342h-400v101.176c0 20.282 17.466 36.824 37.748 36.824h325.23c20.367-0.025 36.885-16.473 37.022-36.811v-0.013z" />
<glyph unicode="&#xe96d;" glyph-name="portfolio" d="M858.82 490h-162.82v71.64c-0.031 18.298-7.427 34.863-19.38 46.894l0.004-0.004 3.376-2.53v97.32c0 24.576-10.972 42.174-32.744 52.298-7.682 3.628-14.178 8.565-19.469 14.586l-0.057 0.066c-9.529 10.669-15.446 24.742-15.729 40.192l-0.001 0.058v1.48h21.22c6.883 0.159 12.442 5.607 12.779 12.429l0.001 0.031v103.74c0 6.628-6.152 11.8-12.78 11.8h-249.94c-0.017 0-0.038 0-0.058 0-6.205 0-11.236-5.031-11.236-11.236 0-0.198 0.005-0.396 0.015-0.592l-0.001 0.027v-103.74c0-6.628 4.652-12.46 11.28-12.46h14.72v-11.62c0-0.057 0-0.125 0-0.193 0-27.369-7.53-52.979-20.631-74.872l0.369 0.665-0.264-0.2c-0.45-0.746-0.624-1.496-1.17-2.35-17.158-27.662-18.304-58.4-18.304-90.090v-16.83c-18.156-11.761-30-31.919-30-54.843 0-0.009 0-0.019 0-0.028v0.001-71.64h-162.82c-39.702 0-71.18-33.218-71.18-72.92v-389.28c-0.002-0.175-0.002-0.381-0.002-0.588 0-39.319 31.866-71.195 71.181-71.212h693.642c39.317 0.017 71.182 31.893 71.182 71.212 0 0.207-0.001 0.413-0.003 0.62v-0.032 389.28c0 39.702-31.478 72.92-71.18 72.92zM672 561.64v-71.64h-24v54.8c0 18.4-15.6 33.2-34 33.2h-6v26h22.62c11.101-0.167 21.12-4.662 28.473-11.867l-0.007 0.007c7.966-7.653 12.915-18.395 12.915-30.292 0-0.073 0-0.146-0.001-0.219v0.011zM624 544.8v-54.8h-224v19.922c7.449 0.415 14.265 2.808 20.026 6.656l-0.146-0.092c7.171-11.929 20.044-19.786 34.752-19.786 11.254 0 21.434 4.601 28.762 12.024l0.004 0.004c7.462-7.433 17.755-12.029 29.121-12.029 11.149 0 21.265 4.421 28.69 11.606l-0.011-0.011c7.003-7.16 16.762-11.6 27.558-11.6 0.002 0 0.004 0 0.007 0v0c0.012 0 0.027 0 0.041 0 21.469 0 38.907 17.259 39.196 38.659v18.647h6c0.065 0.002 0.142 0.002 0.218 0.002 5.202 0 9.458-4.053 9.78-9.174l0.001-0.028zM396 836v80h226v-80zM382 633.34c0 28.088 0.8 55.146 14.55 77.332 0.576 0.906 0.958 1.83 1.516 2.756l0.362 0.248c14.813 24.713 23.572 54.524 23.572 86.381 0 0.114 0 0.227 0 0.341v-0.017 11.62h166v-1.48c0.326-21.579 8.459-41.198 21.692-56.215l-0.082 0.095c7.52-8.539 16.65-15.463 26.941-20.335l0.505-0.215c9.838-4.576 18.944-11.442 18.944-30.54v-79.31l5.372-4.028c-8.862 5.016-19.456 7.988-30.74 8.028h-22.632v10.42c-0.002 0.079-0.004 0.172-0.004 0.266 0 5.003 3.761 9.128 8.61 9.702l0.046 0.004c5.914 0.807 10.423 5.825 10.423 11.896 0 6.627-5.373 12-12 12-0.335 0-0.667-0.014-0.996-0.041l0.043 0.003c-17.017-1.917-30.123-16.228-30.123-33.599 0-0.081 0-0.162 0.001-0.243v0.012-103.040c0-8.284-6.716-15-15-15s-15 6.716-15 15v0 59.36c0 6.627-5.373 12-12 12s-12-5.373-12-12v0-56.62c-0.020-9.616-7.813-17.405-17.429-17.42h-0.001c-0.004 0-0.008 0-0.013 0-4.67 0-8.882 1.958-11.86 5.099l-0.007 0.007c-2.91 3.034-4.701 7.16-4.701 11.705 0 0.214 0.004 0.428 0.012 0.64l-0.001-0.031v43.62c0 6.627-5.373 12-12 12s-12-5.373-12-12v0-44.52c-0.281-9.183-7.792-16.52-17.017-16.52-4.63 0-8.828 1.848-11.897 4.847l0.003-0.003c-3.069 2.963-5.002 7.085-5.090 11.66v44.916c0 6.627-5.373 12-12 12s-12-5.373-12-12v0-31.88c0-0.007 0-0.014 0-0.022 0-9.036-7.318-16.363-16.351-16.378h-0.001c-0.009 0-0.020 0-0.031 0-1.825 0-3.577 0.308-5.208 0.876l0.111-0.034c-2.4 0.85-4.439 2.208-6.068 3.953l-0.008 0.009c-2.756 2.866-4.453 6.767-4.453 11.064 0 0.188 0.003 0.376 0.010 0.563l-0.001-0.027zM352 561.64c0 0.023 0 0.049 0 0.076 0 7.932 2.232 15.342 6.103 21.637l-0.103-0.179v-32.934c-0.003-0.175-0.004-0.381-0.004-0.588 0-10.908 4.387-20.791 11.492-27.982l-0.004 0.004c1.941-1.938 4.072-3.686 6.364-5.212l0.152-0.096v-26.366h-24zM222-20h-56.82c-26.061 0.009-47.184 21.138-47.184 47.2 0 0.211 0.001 0.422 0.004 0.632v-0.032 389.28c0 26.466 20.712 48.92 47.18 48.92h56.82zM778-20h-532v486h532zM906 27.8c0.002-0.178 0.004-0.389 0.004-0.6 0-26.062-21.123-47.191-47.183-47.2h-56.821v486h56.82c26.468 0 47.18-22.454 47.18-48.92zM150 392.32v-7.2c0-6.627 5.373-12 12-12s12 5.373 12 12v0 7.2c0 6.627-5.373 12-12 12s-12-5.373-12-12v0zM162 356.96c-6.627 0-12-5.373-12-12v0-149.020c0-6.627 5.373-12 12-12s12 5.373 12 12v0 149.020c0 6.627-5.373 12-12 12v0zM584 907.36c-16.569 0-30-13.431-30-30s13.431-30 30-30c16.569 0 30 13.431 30 30v0c-0.019 16.561-13.439 29.981-29.998 30h-0.002zM584 871.36c-3.314 0-6 2.686-6 6s2.686 6 6 6c3.314 0 6-2.686 6-6v0c0-3.314-2.686-6-6-6v0z" />
<glyph unicode="&#xe96e;" glyph-name="keyboard" d="M448.354 839.112c-1.466 4.88-7.482 7.162-13.662 7.162-6.018 0-12.034-2.276-13.498-7.156l-31.394-102.29c-0.143-0.465-0.257-1.016-0.322-1.582l-0.004-0.044c0-5.2 7.644-8.782 13.336-8.782 3.578 0 6.344 1 7.156 4.090l6.186 21.49h37.248l6.18-21.49c0.812-3.090 3.578-4.16 7.156-4.16 5.692 0 13.334 3.776 13.334 8.818-0.050 0.604-0.164 1.162-0.339 1.694l0.015-0.052zM420.542 768l14.15 49.926 14.148-49.926zM502 845.3c-5.368 0-10-1.95-10-6.504v-105.708c0-4.4 4.632-6.668 10-6.668 5.2 0 10 2.276 10 6.668v105.712c0 4.55-4.8 6.5-10 6.5zM934.552 368h-71.924c-4.798 21.86-23.991 37.982-46.952 38h-33.676v95.308c0 55.781-45.219 101-101 101s-101-45.219-101-101v0-23.13c0-30.928-25.072-56-56-56s-56 25.072-56 56v0 141.878c56.118 4.469 103.531 37.833 127.724 85.058l0.412 0.886h14.2c12.003-0.178 21.664-9.95 21.664-21.978 0-0.008 0-0.016 0-0.023v0.001c0 0 0-0.001 0-0.001 0-25.286 20.403-45.807 45.644-45.999h5.3c2.496-7.626 6.442-14.177 11.549-19.629l-0.027 0.029c8.159-8.194 19.449-13.265 31.924-13.265 24.879 0 45.048 20.169 45.048 45.048 0 12.589-5.164 23.972-13.489 32.146l-0.007 0.007c-8.202 8.145-19.503 13.179-31.979 13.179-12.468 0-23.763-5.028-31.966-13.166l0.003 0.003v-0.248c-5.462-5.289-9.374-12.149-11.009-19.849l-0.045-0.255h-5.28c-12.003 0.175-21.666 9.946-21.666 21.974 0 0.009 0 0.018 0 0.028v-0.001c0 0 0 0.001 0 0.001 0 25.287-20.404 45.808-45.646 45.999h-4.312c3.366 10.499 5.819 22.744 6.877 35.385l0.041 0.615h77.388c2.035-7.901 6.069-14.678 11.534-19.99l0.010-0.010c8.119-8.073 19.312-13.063 31.669-13.063 24.809 0 44.92 20.111 44.92 44.92s-20.111 44.92-44.92 44.92c-12.358 0-23.55-4.99-31.671-13.065l0.002 0.002c-5.468-5.225-9.501-11.908-11.476-19.425l-0.064-0.289h-77.388c-1.099 13.256-3.552 25.501-7.243 37.195l0.325-1.195h4.294c0.151-0.002 0.33-0.003 0.508-0.003 24.884 0 45.067 20.13 45.152 44.995v0.008c0.070 11.617 9.503 21.007 21.13 21.007 0.189 0 0.377-0.002 0.564-0.007l-0.028 0.001h5.28c2-6 5.054-13.676 11.054-19.38v0.236c10-8.782 20.554-13.054 32.090-13.054 0.126-0.001 0.274-0.002 0.423-0.002 24.842 0 44.98 20.138 44.98 44.98s-20.138 44.98-44.98 44.98c-12.554 0-23.908-5.143-32.067-13.438l-0.006-0.006c-5.493-5.413-9.518-12.302-11.433-20.024l-0.061-0.292h-5.28c-0.153 0.002-0.333 0.003-0.514 0.003-24.884 0-45.067-20.13-45.152-44.995v-0.008c-0.070-11.617-9.503-21.007-21.13-21.007-0.186 0-0.372 0.002-0.558 0.007l0.027-0.001h-14.2c-26.244 50-79.588 86.472-141.032 86.472s-114.794-36.472-141.038-86.472h-14.2c-0.161-0.004-0.35-0.007-0.54-0.007-11.626 0-21.060 9.39-21.13 21v0.007c-0.086 24.873-20.269 45.003-45.154 45.003-0.178 0-0.356-0.001-0.533-0.003h-5.253c-1.986 8.021-6.021 14.913-11.518 20.325l-0.006 0.005c-8.151 8.26-19.47 13.377-31.984 13.377-24.811 0-44.924-20.113-44.924-44.924s20.113-44.924 44.924-44.924c0.091 0 0.183 0 0.274 0.001h-0.014c11.538 0 21.988 4.422 31.988 13.2v-0.46c5.111 5.298 8.996 11.814 11.176 19.067l0.086 0.333h5.278c0.157 0.004 0.343 0.007 0.528 0.007 11.627 0 21.061-9.39 21.132-21v-0.007c0.085-24.873 20.267-45.003 45.152-45.003 0.182 0 0.363 0.001 0.544 0.003h4.264c-3.364-10.498-5.816-22.743-6.876-35.383l-0.042-0.617h-77.386c-2.040 7.809-6.075 14.495-11.53 19.707l-0.016 0.015c-8.186 8.233-19.52 13.329-32.045 13.329-24.954 0-45.184-20.23-45.184-45.184s20.23-45.184 45.184-45.184c12.524 0 23.858 5.096 32.042 13.327l0.002 0.002c5.474 5.319 9.509 12.091 11.481 19.694l0.065 0.294h77.386c1.102-13.257 3.554-25.502 7.244-37.197l-0.326 1.197h-4.292c-25.262-0.188-45.668-20.71-45.668-45.999 0 0 0-0.001 0-0.001v0c0-0.007 0-0.014 0-0.022 0-12.028-9.661-21.8-21.647-21.978h-5.295c-1.759 7.971-5.736 14.828-11.243 20.098l-0.015 0.014v0.128c-8.178 8.275-19.527 13.4-32.074 13.4-24.9 0-45.086-20.186-45.086-45.086 0-24.896 20.179-45.079 45.073-45.086h0.001c0.129-0.001 0.281-0.002 0.433-0.002 12.25 0 23.347 4.937 31.41 12.929l-0.003-0.003c5.074 5.423 9.016 11.975 11.403 19.232l0.105 0.368h5.278c25.258 0.193 45.66 20.713 45.66 45.999 0 0.003 0 0.006 0 0.010v0c0 0.007 0 0.014 0 0.022 0 12.028 9.661 21.8 21.647 21.978h14.217c24.875-48.643 73.080-82.228 129.452-86.064l0.484-0.026v-141.732c0-44.183 35.817-80 80-80s80 35.817 80 80v0 23.13c0 42.526 34.474 77 77 77s77-34.474 77-77v0-95.308h-32.674c-22.963-0.018-42.156-16.14-46.895-37.682l-0.059-0.318h-588.924c-17.73 0-31.448-14.892-31.448-32.62v-357.228c-0.003-0.164-0.005-0.358-0.005-0.552 0-17.4 14.064-31.516 31.445-31.6h845.112c17.389 0.084 31.453 14.199 31.453 31.6 0 0.194-0.002 0.388-0.005 0.581v-0.029 357.228c0 17.728-13.718 32.62-31.448 32.62zM711.44 665.4c3.81 3.81 9.073 6.166 14.886 6.166 11.627 0 21.052-9.425 21.052-21.052s-9.425-21.052-21.052-21.052c-5.813 0-11.076 2.356-14.886 6.166v0c-3.804 3.812-6.156 9.074-6.156 14.886s2.352 11.074 6.156 14.886v0zM718.87 792.618c3.81 3.81 9.073 6.167 14.887 6.167 11.627 0 21.052-9.425 21.052-21.052s-9.425-21.052-21.052-21.052c-5.814 0-11.077 2.357-14.887 6.167v0c-3.81 3.809-6.167 9.072-6.167 14.885s2.357 11.076 6.167 14.885v0zM711.44 919.834c3.81 3.81 9.073 6.167 14.887 6.167 11.627 0 21.052-9.425 21.052-21.052s-9.425-21.052-21.052-21.052c-5.814 0-11.077 2.357-14.887 6.167v0c-3.803 3.812-6.155 9.074-6.155 14.885s2.352 11.073 6.155 14.885v0zM198.768 890.064c-3.807-3.804-9.065-6.157-14.873-6.157-11.621 0-21.042 9.421-21.042 21.042s9.421 21.042 21.042 21.042c5.808 0 11.066-2.353 14.873-6.157v0c3.803-3.812 6.154-9.074 6.154-14.885s-2.351-11.073-6.155-14.885v0zM191.34 762.846v0c-3.809-3.807-9.069-6.162-14.88-6.162-11.624 0-21.048 9.424-21.048 21.048s9.424 21.048 21.048 21.048c11.624 0 21.048-9.424 21.048-21.048 0 0 0 0 0 0v0c0-0.017 0-0.036 0-0.056 0-5.797-2.359-11.042-6.169-14.829l-0.001-0.001zM198.768 635.626c-3.807-3.804-9.065-6.156-14.872-6.156-11.621 0-21.042 9.421-21.042 21.042s9.421 21.042 21.042 21.042c5.807 0 11.065-2.352 14.872-6.156v0c3.803-3.813 6.155-9.075 6.155-14.886s-2.352-11.073-6.156-14.886v0zM455.104 643.368c-0.001 0-0.001 0-0.002 0-74.207 0-134.364 60.157-134.364 134.364s60.157 134.364 134.364 134.364c74.207 0 134.364-60.157 134.364-134.364 0-0.001 0-0.001 0-0.002v0c-0.088-74.171-60.191-134.274-134.354-134.362h-0.008zM725.326 382h90.348c9.526-0.207 17.697-5.804 21.602-13.854l0.064-0.146h-133.68c3.969 8.196 12.14 13.793 21.639 14h0.027zM944-21.848c0-4.502-3.65-8.152-8.152-8.152v0h-845.696c-4.502 0-8.152 3.65-8.152 8.152v0 357.696c0 4.502 3.65 8.152 8.152 8.152h845.696c4.502 0 8.152-3.65 8.152-8.152v0zM396 240h60c6.627 0 12 5.373 12 12v0 60c0 6.627-5.373 12-12 12v0h-60c-6.627 0-12-5.373-12-12v0-60c0-6.627 5.373-12 12-12v0zM408 300h36v-36h-36zM172 324h-60c-6.627 0-12-5.373-12-12v0-60c0-6.627 5.373-12 12-12v0h60c6.627 0 12 5.373 12 12v0 60c0 6.627-5.373 12-12 12v0zM160 264h-36v36h36zM314 324h-60c-6.627 0-12-5.373-12-12v0-60c0-6.627 5.373-12 12-12v0h60c6.627 0 12 5.373 12 12v0 60c0 6.627-5.373 12-12 12v0zM302 264h-36v36h36zM538 240h60c6.627 0 12 5.373 12 12v0 60c0 6.627-5.373 12-12 12v0h-60c-6.627 0-12-5.373-12-12v0-60c0-6.627 5.373-12 12-12v0zM550 300h36v-36h-36zM740 324h-60c-6.627 0-12-5.373-12-12v0-60c0-6.627 5.373-12 12-12v0h60c6.627 0 12 5.373 12 12v0 60c0 6.627-5.373 12-12 12v0zM728 264h-36v36h36zM910 324h-90c-6.627 0-12-5.373-12-12v0-60c0-6.627 5.373-12 12-12v0h90c6.627 0 12 5.373 12 12v0 60c0 6.627-5.373 12-12 12v0zM898 264h-66v36h66zM396 114h60c6.627 0 12 5.373 12 12v0 60c0 6.627-5.373 12-12 12v0h-60c-6.627 0-12-5.373-12-12v0-60c0-6.627 5.373-12 12-12v0zM408 174h36v-36h-36zM172 198h-60c-6.627 0-12-5.373-12-12v0-60c0-6.627 5.373-12 12-12v0h60c6.627 0 12 5.373 12 12v0 60c0 6.627-5.373 12-12 12v0zM160 138h-36v36h36zM314 198h-60c-6.627 0-12-5.373-12-12v0-60c0-6.627 5.373-12 12-12v0h60c6.627 0 12 5.373 12 12v0 60c0 6.627-5.373 12-12 12v0zM302 138h-36v36h36zM538 114h60c6.627 0 12 5.373 12 12v0 60c0 6.627-5.373 12-12 12v0h-60c-6.627 0-12-5.373-12-12v0-60c0-6.627 5.373-12 12-12v0zM550 174h36v-36h-36zM740 198h-60c-6.627 0-12-5.373-12-12v0-60c0-6.627 5.373-12 12-12v0h60c6.627 0 12 5.373 12 12v0 60c0 6.627-5.373 12-12 12v0zM728 138h-36v36h36zM910 198h-90c-6.627 0-12-5.373-12-12v0-60c0-6.627 5.373-12 12-12v0h90c6.627 0 12 5.373 12 12v0 60c0 6.627-5.373 12-12 12v0zM898 138h-66v36h66zM172 74h-60c-6.627 0-12-5.373-12-12v0-60c0-6.627 5.373-12 12-12v0h60c6.627 0 12 5.373 12 12v0 60c0 6.627-5.373 12-12 12v0zM160 14h-36v36h36zM314 74h-60c-6.627 0-12-5.373-12-12v0-60c0-6.627 5.373-12 12-12v0h60c6.627 0 12 5.373 12 12v0 60c0 6.627-5.373 12-12 12v0zM302 14h-36v36h36zM638 74h-280c-6.627 0-12-5.373-12-12v0-60c0-6.627 5.373-12 12-12v0h280c6.627 0 12 5.373 12 12v0 60c0 6.627-5.373 12-12 12v0zM624 14h-254v36h254zM740 74h-60c-6.627 0-12-5.373-12-12v0-60c0-6.627 5.373-12 12-12v0h60c6.627 0 12 5.373 12 12v0 60c0 6.627-5.373 12-12 12v0zM728 14h-36v36h36zM910 74h-90c-6.627 0-12-5.373-12-12v0-60c0-6.627 5.373-12 12-12v0h90c6.627 0 12 5.373 12 12v0 60c0 6.627-5.373 12-12 12v0zM898 14h-66v36h66zM118.6 384h10.16c6.627 0 12 5.373 12 12s-5.373 12-12 12v0h-10.16c-6.627 0-12-5.373-12-12s5.373-12 12-12v0zM305.23 384c6.627 0 12 5.373 12 12s-5.373 12-12 12v0h-136.776c-6.627 0-12-5.373-12-12s5.373-12 12-12v0z" />
<glyph unicode="&#xe96f;" glyph-name="test-tube" d="M208 95.388c9.715 0.067 17.564 7.958 17.564 17.682 0 9.765-7.917 17.682-17.682 17.682s-17.682-7.916-17.682-17.682v0c0.044-9.775 7.979-17.682 17.76-17.682 0.014 0 0.028 0 0.042 0h-0.002zM246.952 179.8c8.832 0.049 15.972 7.219 15.972 16.058 0 8.869-7.189 16.058-16.058 16.058s-16.058-7.189-16.058-16.058v0c0.035-8.876 7.239-16.058 16.12-16.058 0.008 0 0.017 0 0.025 0h-0.001zM350.976 79.966c7.73 0.024 13.988 6.296 13.988 14.030 0 7.749-6.281 14.030-14.030 14.030-7.747 0-14.028-6.279-14.030-14.026v0c0.018-7.755 6.309-14.034 14.066-14.034 0.002 0 0.004 0 0.006 0v0zM514.248 26.628c0-8.644-7.043-15.652-15.73-15.652s-15.73 7.008-15.73 15.652c0 8.644 7.043 15.652 15.73 15.652s15.73-7.008 15.73-15.652zM249.872 11.2c0-0.012 0-0.027 0-0.042 0-7.772 6.3-14.072 14.072-14.072s14.072 6.3 14.072 14.072c0 7.772-6.3 14.072-14.072 14.072v0c-0.002 0-0.005 0-0.008 0-7.755 0-14.045-6.277-14.064-14.028v-0.002zM459.284 113.272c8.613 0.043 15.578 7.035 15.578 15.654 0 8.645-7.009 15.654-15.654 15.654s-15.654-7.009-15.654-15.654c0-0.001 0-0.001 0-0.002v0c0.032-8.651 7.052-15.652 15.708-15.652 0.008 0 0.016 0 0.023 0h-0.001zM612.64 113.058c0-7.21-5.854-13.054-13.076-13.054s-13.076 5.844-13.076 13.054c0 7.21 5.854 13.054 13.076 13.054s13.076-5.844 13.076-13.054zM692.388 100.342c-7.773-0.025-14.064-6.332-14.064-14.108 0-7.792 6.316-14.108 14.108-14.108s14.108 6.316 14.108 14.108v0c-0.022 7.796-6.347 14.108-14.146 14.108-0.002 0-0.004 0-0.006 0v0zM673.104 22.648c0-7.21-5.854-13.054-13.076-13.054s-13.076 5.844-13.076 13.054c0 7.21 5.854 13.054 13.076 13.054s13.076-5.844 13.076-13.054zM833.8 130.466c-7.2-0.013-13.032-5.852-13.032-13.054 0-7.21 5.844-13.054 13.054-13.054s13.054 5.844 13.054 13.054v0c-0.015 7.211-5.863 13.052-13.076 13.054v0zM785.362 39.496c0-7.21-5.854-13.054-13.076-13.054s-13.076 5.844-13.076 13.054c0 7.21 5.854 13.054 13.076 13.054s13.076-5.844 13.076-13.054zM448.45 845.96c0.094-0.001 0.205-0.001 0.316-0.001 26.055 0 47.205 21 47.448 46.998v0.023c-0.389 26.083-21.624 47.077-47.763 47.077s-47.374-20.994-47.763-47.040v-0.037c0.243-26.021 21.393-47.021 47.448-47.021 0.11 0 0.221 0 0.331 0.001h-0.017zM448.45 916c0.102 0.002 0.221 0.002 0.341 0.002 12.796 0 23.196-10.259 23.422-23.001v-0.021c-0.402-12.815-10.887-23.051-23.763-23.051s-23.361 10.236-23.762 23.014l-0.001 0.037c0.227 12.763 10.627 23.022 23.423 23.022 0.119 0 0.239-0.001 0.357-0.003h-0.018zM207.93 879.928c10.508 0.087 18.992 8.625 18.992 19.145 0 10.574-8.572 19.146-19.146 19.146s-19.146-8.572-19.146-19.145v0c0.056-10.586 8.65-19.146 19.244-19.146 0.020 0 0.040 0 0.059 0h-0.003zM207.93 903.928c0.046 0.002 0.1 0.002 0.154 0.002 2.682 0 4.856-2.174 4.856-4.856s-2.174-4.856-4.856-4.856c-2.682 0-4.856 2.174-4.856 4.856v0c0 0.021-0.001 0.046-0.001 0.071 0 2.613 2.096 4.737 4.698 4.783h0.004zM675.65 836.86c-20.214-0.3-36.486-16.757-36.486-37.014 0-20.444 16.574-37.018 37.018-37.018s37.017 16.572 37.018 37.016v0c-0.176 20.481-16.82 37.017-37.327 37.017-0.079 0-0.157 0-0.235-0.001h0.012zM675.65 786.832c-6.966 0.287-12.504 6.004-12.504 13.014 0 7.193 5.831 13.024 13.024 13.024s13.024-5.831 13.024-13.024c0-0.001 0-0.001 0-0.002v0c-0.16-7.221-6.052-13.014-13.297-13.014-0.087 0-0.174 0.001-0.26 0.002h0.013zM531.138 701.368c12.839 0.137 23.194 10.576 23.194 23.435 0 12.943-10.493 23.436-23.436 23.436s-23.436-10.493-23.436-23.436c0-0.001 0-0.002 0-0.003v0c0.086-12.96 10.612-23.432 23.584-23.432 0.033 0 0.066 0 0.1 0h-0.005zM531.138 725.368c0.166-0.012 0.328-0.292 0.328-0.566s-0.162-0.552-0.314-0.564-0.33 0.294-0.33 0.564 0.158 0.554 0.31 0.566zM638.856 914.030h52.698c6.627 0 12 5.373 12 12s-5.373 12-12 12v0h-52.698c-6.627 0-12-5.373-12-12s5.373-12 12-12v0zM285.74 821.822h29.86c6.627 0 12 5.373 12 12s-5.373 12-12 12v0h-29.86c-6.627 0-12-5.373-12-12s5.373-12 12-12v0zM825.5 712.248h12.3c6.627 0 12 5.373 12 12s-5.373 12-12 12v0h-12.3c-6.627 0-12-5.373-12-12s5.373-12 12-12v0zM165.076-44h373.214c0.112-0.001 0.245-0.001 0.378-0.001 21.368 0 39.882 12.223 48.93 30.059l0.144 0.312 13.832-6.36c2.328-1.070 4.508-1.952 6.666-2.698 21.591-7.703 46.501-12.313 72.44-12.66l0.16-0.002c1.11-0.014 2.2-0.022 3.316-0.022 0.327-0.002 0.715-0.003 1.102-0.003 63.13 0 120.328 25.396 161.935 66.53l-0.022-0.021c41.249 40.299 66.828 96.482 66.828 158.64 0 0.073 0 0.145 0 0.218v-0.012c0 94.15-59.784 178.306-149.348 211.122v259.022c-0.035 8.963-7.31 16.216-16.278 16.216-0.009 0-0.018 0-0.028 0h-128.453c-0.008 0-0.018 0-0.028 0-8.968 0-16.243-7.253-16.278-16.213v-259.027c-49.436-18.579-89.724-52.032-116.41-94.84l-0.568-0.978-52.918 141.558-4 274.228c-0.196 8.858-7.417 15.966-16.301 15.98h-142.165c-8.894-0.011-16.12-7.132-16.302-15.983v-0.017l-3.86-279.8-138.302-414.248c-1.764-5.052-2.783-10.875-2.783-16.936 0-11.747 3.827-22.6 10.301-31.381l-0.102 0.145c10.194-13.903 26.466-22.828 44.823-22.828 0.026 0 0.052 0 0.079 0h-0.004zM890 189.98c0-0.042 0-0.092 0-0.142 0-55.491-22.841-105.648-59.635-141.58l-0.039-0.038c-37.68-36.851-89.296-59.589-146.223-59.589-24.36 0-47.748 4.164-69.49 11.818l1.465-0.449c-1.4 0.486-2.87 1.080-4.478 1.82l-18.2 8.364c-0.035 6.79-1.327 13.268-3.655 19.227l0.125-0.365-43.67 116.836c2.35 1.648 5.052 3.274 7.866 4.713l0.39 0.181c18.376 9.16 54.428 21.88 89.432 4.148 12.164-6.16 22.238-11.448 31.128-16.112 31.876-16.726 46.424-24.358 68.46-24.912 0.37 0 0.744-0.014 1.128-0.014 27.926 0 87.6 24.688 116.542 63.154 8.244 11.251 17.502 21.022 27.847 29.518l0.279 0.222c0.472-5.554 0.728-11.156 0.728-16.8zM499.776 279.734c24.724 47.054 65.709 82.754 115.32 100.052l1.448 0.44c6.462 2.221 11.026 8.239 11.044 15.326v256.788h113.064v-256.786c0.019-7.089 4.584-13.107 10.932-15.294l0.114-0.034c66.793-22.826 117.11-77.638 133.201-145.68l0.275-1.378c-9.49-5.698-25.124-17.664-43.2-41.698-25.266-33.578-78.462-54.084-97.89-53.578-16.442 0.414-27.734 6.338-57.91 22.172-8.962 4.702-19.118 10.032-31.436 16.27-44.364 22.47-88.576 7.088-110.984-4.080-2.082-1.038-4.122-2.188-6.138-3.4l-39.89 106.708zM274.212 434.8c0.506 1.457 0.808 3.136 0.832 4.883v0.011l3.772 273.346h127l3.902-267.924c0.029-1.952 0.4-3.809 1.057-5.524l-0.037 0.11 62.506-167.2c0.088-0.27 0.2-0.534 0.298-0.8l8.978-24.014c-2.738-3.866-7.288-10.338-14.786-21.094-16.372-23.484-37.6-35.956-64.918-38.128-26.2-2.072-47.784 7.298-74.482 32.382-26.236 24.652-51.018 47.938-92.75 35.838-7.918-2.296-17.044-8.106-25.84-15zM135.532 19.4l58.2 174.304c14.082 15.322 37.174 36.63 48.544 39.926 27.316 7.924 42.66-4.934 69.632-30.276 28.864-27.118 54.4-39.182 83.8-39.18q4.446 0 9.020 0.364c34.43 2.738 62.256 19 82.704 48.328 1.962 2.814 3.71 5.318 5.284 7.57l74.712-199.862c1.237-3.109 1.954-6.711 1.954-10.48 0-6.263-1.979-12.063-5.346-16.81l0.061 0.090c-5.637-8.125-14.918-13.378-25.426-13.378-0.132 0-0.263 0.001-0.394 0.002h-373.2c-0.094-0.001-0.205-0.002-0.316-0.002-10.301 0-19.428 5.032-25.054 12.773l-0.062 0.089c-3.521 4.764-5.636 10.753-5.636 17.237 0 3.33 0.558 6.529 1.585 9.51l-0.061-0.205zM320.24 512.118c6.627 0 12 5.373 12 12v0 110.4c0 6.627-5.373 12-12 12s-12-5.373-12-12v0-110.4c0-6.627 5.373-12 12-12v0zM320.24 449.838c6.627 0 12 5.373 12 12v0 22.648c0 6.627-5.373 12-12 12s-12-5.373-12-12v0-22.648c0-6.627 5.373-12 12-12v0zM664.41 470.5c6.627 0 12 5.373 12 12v0 110.4c0 6.627-5.373 12-12 12s-12-5.373-12-12v0-110.4c0-6.627 5.373-12 12-12v0zM664.41 408.22c6.627 0 12 5.373 12 12v0 22.648c0 6.627-5.373 12-12 12s-12-5.373-12-12v0-22.648c0-6.627 5.373-12 12-12v0z" />
<glyph unicode="&#xe970;" d="M608 591.36c0-167.895-136.105-304-304-304s-304 136.105-304 304c0 167.895 136.105 304 304 304s304-136.105 304-304z" />
<glyph unicode="&#xe971;" d="M848 143.36c0-70.692-57.308-128-128-128s-128 57.308-128 128c0 70.692 57.308 128 128 128s128-57.308 128-128z" />
<glyph unicode="&#xe972;" d="M512-16.576c-167.632 0-304 136.368-304 304s136.368 304 304 304 304-136.368 304-304-136.368-304-304-304zM512 559.424c-149.984 0-272-122.016-272-272s122.016-272 272-272 272 122.016 272 272-122.016 272-272 272z" />
<glyph unicode="&#xe973;" d="M512 383.424c-83.28 0-160.944 32.992-218.72 92.896l23.024 22.224c51.68-53.6 121.184-83.104 195.68-83.104s144 29.52 195.68 83.104l23.024-22.224c-57.744-59.92-135.424-92.896-218.688-92.896z" />
<glyph unicode="&#xe974;" d="M707.68 76.32c-51.68 53.584-121.184 83.104-195.68 83.104-74.512 0-144-29.52-195.68-83.104l-23.024 22.224c57.776 59.904 135.44 92.896 218.72 92.896 83.264 0 160.944-32.992 218.72-92.896l-23.056-22.224z" />
<glyph unicode="&#xe975;" d="M512-16.576c-98.688 0-176 133.536-176 304s77.312 304 176 304 176-133.536 176-304-77.312-304-176-304zM512 559.424c-78.048 0-144-124.56-144-272s65.952-272 144-272c78.064 0 144 124.56 144 272s-65.936 272-144 272z" />
<glyph unicode="&#xe976;" d="M224 303.36h176v-32h-176v32z" />
<glyph unicode="&#xe977;" d="M624 303.36h176v-32h-176v32z" />
<glyph unicode="&#xe978;" d="M432 303.36h32v-32h-32v32z" />
<glyph unicode="&#xe979;" d="M496 303.36h32v-32h-32v32z" />
<glyph unicode="&#xe97a;" d="M560 303.36h32v-32h-32v32z" />
<glyph unicode="&#xe97b;" d="M496 575.36h32v-240h-32v240z" />
<glyph unicode="&#xe97c;" d="M496 239.36h32v-240h-32v240z" />
<glyph unicode="&#xe97d;" d="M816 495.424h-32v96c0 44.592-108.48 112-272 112s-272-67.408-272-112v-96h-32v96c0 76.704 142.048 144 304 144 161.936 0 304-67.296 304-144v-96z" />
<glyph unicode="&#xe97e;" d="M805.744 576.48l-11.488 29.872 197.744 76.064v10.048l-480 185.808-480-185.808v-10.048l197.744-76.064-11.488-29.872-218.256 83.952v53.952l512 198.192 512-198.192v-53.952z" />
<glyph unicode="&#xe97f;" d="M112 687.36h32v-288h-32v288z" />
<glyph unicode="&#xe980;" d="M176 271.424h-96v96c0 26.464 21.536 48 48 48s48-21.536 48-48v-96zM112 303.424h32v64c0 8.832-7.184 16-16 16s-16-7.168-16-16v-64z" />
<glyph unicode="&#xe981;" d="M1008 480c0-167.895-136.105-304-304-304s-304 136.105-304 304c0 167.895 136.105 304 304 304s304-136.105 304-304z" />
<glyph unicode="&#xe982;" d="M272 304c0-70.692-57.308-128-128-128s-128 57.308-128 128c0 70.692 57.308 128 128 128s128-57.308 128-128z" />
<glyph unicode="&#xe983;" d="M416 544h32v-32h-32v32z" />
<glyph unicode="&#xe984;" d="M416 608h32v-32h-32v32z" />
<glyph unicode="&#xe985;" d="M416 672h32v-32h-32v32z" />
<glyph unicode="&#xe986;" d="M416 736h32v-32h-32v32z" />
<glyph unicode="&#xe987;" d="M416 800h32v-32h-32v32z" />
<glyph unicode="&#xe988;" d="M416 480h32v-32h-32v32z" />
<glyph unicode="&#xe989;" d="M416 416h32v-32h-32v32z" />
<glyph unicode="&#xe98a;" d="M416 352h32v-32h-32v32z" />
<glyph unicode="&#xe98b;" d="M416 288h32v-32h-32v32z" />
<glyph unicode="&#xe98c;" d="M416 224h32v-32h-32v32z" />
<glyph unicode="&#xe98d;" d="M416 160h32v-32h-32v32z" />
<glyph unicode="&#xe98e;" d="M416 96h32v-32h-32v32z" />
<glyph unicode="&#xe98f;" d="M480 544h32v-32h-32v32z" />
<glyph unicode="&#xe990;" d="M544 544h32v-32h-32v32z" />
<glyph unicode="&#xe991;" d="M480 608h32v-32h-32v32z" />
<glyph unicode="&#xe992;" d="M480 672h32v-32h-32v32z" />
<glyph unicode="&#xe993;" d="M480 736h32v-32h-32v32z" />
<glyph unicode="&#xe994;" d="M480 800h32v-32h-32v32z" />
<glyph unicode="&#xe995;" d="M480 480h32v-32h-32v32z" />
<glyph unicode="&#xe996;" d="M480 416h32v-32h-32v32z" />
<glyph unicode="&#xe997;" d="M480 352h32v-32h-32v32z" />
<glyph unicode="&#xe998;" d="M480 288h32v-32h-32v32z" />
<glyph unicode="&#xe999;" d="M480 224h32v-32h-32v32z" />
<glyph unicode="&#xe99a;" d="M480 160h32v-32h-32v32z" />
<glyph unicode="&#xe99b;" d="M480 96h32v-32h-32v32z" />
<glyph unicode="&#xe99c;" d="M544 608h32v-32h-32v32z" />
<glyph unicode="&#xe99d;" d="M352 544h32v-32h-32v32z" />
<glyph unicode="&#xe99e;" d="M352 608h32v-32h-32v32z" />
<glyph unicode="&#xe99f;" d="M352 672h32v-32h-32v32z" />
<glyph unicode="&#xe9a0;" d="M352 736h32v-32h-32v32z" />
<glyph unicode="&#xe9a1;" d="M352 480h32v-32h-32v32z" />
<glyph unicode="&#xe9a2;" d="M352 416h32v-32h-32v32z" />
<glyph unicode="&#xe9a3;" d="M352 352h32v-32h-32v32z" />
<glyph unicode="&#xe9a4;" d="M352 288h32v-32h-32v32z" />
<glyph unicode="&#xe9a5;" d="M352 224h32v-32h-32v32z" />
<glyph unicode="&#xe9a6;" d="M352 160h32v-32h-32v32z" />
<glyph unicode="&#xe9a7;" d="M352 96h32v-32h-32v32z" />
<glyph unicode="&#xe9a8;" d="M288 544h32v-32h-32v32z" />
<glyph unicode="&#xe9a9;" d="M288 480h32v-32h-32v32z" />
<glyph unicode="&#xe9aa;" d="M288 416h32v-32h-32v32z" />
<glyph unicode="&#xe9ab;" d="M288 352h32v-32h-32v32z" />
<glyph unicode="&#xe9ac;" d="M288 288h32v-32h-32v32z" />
<glyph unicode="&#xe9ad;" d="M288 224h32v-32h-32v32z" />
<glyph unicode="&#xe9ae;" d="M288 160h32v-32h-32v32z" />
<glyph unicode="&#xe9af;" d="M288 96h32v-32h-32v32z" />
<glyph unicode="&#xe9b0;" d="M224 480h32v-32h-32v32z" />
<glyph unicode="&#xe9b1;" d="M224 416h32v-32h-32v32z" />
<glyph unicode="&#xe9b2;" d="M224 352h32v-32h-32v32z" />
<glyph unicode="&#xe9b3;" d="M192 384h-32v152.864l128 80v175.696l251.152 167.44h36.848v-248l64-48v-88h-32v72l-64 48v228.768l-224-149.328v-176.304l-128-80z" />
<glyph unicode="&#xe9b4;" d="M576 16h-32v464h288v-288h-32v256h-224z" />
<glyph unicode="&#xe9b5;" d="M768 464h-32v48h-96v-48h-32v80h160z" />
<glyph unicode="&#xe9b6;" d="M608 416h160v-32h-160v32z" />
<glyph unicode="&#xe9b7;" d="M608 352h160v-32h-160v32z" />
<glyph unicode="&#xe9b8;" d="M608 288h160v-32h-160v32z" />
<glyph unicode="&#xe9b9;" d="M608 224h160v-32h-160v32z" />
<glyph unicode="&#xe9ba;" d="M608 160h112v-32h-112v32z" />
<glyph unicode="&#xe9bb;" d="M608 96h64v-32h-64v32z" />
<glyph unicode="&#xe9bc;" d="M896 0h-144c-26.464 0-48 21.536-48 48 0 21.296 13.936 39.392 33.168 45.664 6.496 37.616 39.376 66.336 78.832 66.336 38.64 0 70.976-27.552 78.384-64.032 27.808 0.736 49.616-20.976 49.616-47.968 0-26.464-21.536-48-48-48zM816 128c-26.464 0-48-21.536-48-48 0-8.848-7.152-16-16-16-8.832 0-16-7.168-16-16s7.168-16 16-16h144c8.832 0 16 7.168 16 16 0 11.664-13.392 20.192-24.208 13.616-5.088-3.072-11.504-3.056-16.608 0.048-5.088 3.104-8.032 8.816-7.632 14.768 0.080 1.008 0.208 2 0.336 2.992 0.112 27.040-21.424 48.576-47.888 48.576z" />
<glyph unicode="&#xe9bd;" d="M176 64c-44.112 0-80 35.888-80 80 0 49.952 58.688 183.44 65.376 198.496 2.576 5.792 8.304 9.504 14.624 9.504s12.048-3.712 14.624-9.504c6.688-15.056 65.376-148.544 65.376-198.496 0-44.112-35.888-80-80-80zM176 295.248c-20.368-49.376-48-122.656-48-151.248 0-26.464 21.536-48 48-48s48 21.536 48 48c0 28.608-27.616 101.888-48 151.248z" />
<glyph unicode="&#xe9be;" d="M160 160h32v-144h-32v144z" />
<glyph unicode="&#xe9bf;" d="M976-64h-32v64h-896v-64h-32v96h960z" />
<glyph unicode="&#xe9c0;" d="M960 288c0-167.895-136.105-304-304-304s-304 136.105-304 304c0 167.895 136.105 304 304 304s304-136.105 304-304z" />
<glyph unicode="&#xe9c1;" d="M304 544c0-70.692-57.308-128-128-128s-128 57.308-128 128c0 70.692 57.308 128 128 128s128-57.308 128-128z" />
<glyph unicode="&#xe9c2;" d="M1024 144h-448v32h416v576h-48v32h80z" />
<glyph unicode="&#xe9c3;" d="M80 16c-2.064 0-4.144 0.384-6.128 1.216-5.968 2.464-9.872 8.32-9.872 14.784v80h32v-41.376l100.688 100.688c2.992 3.008 7.072 4.688 11.312 4.688h240v-32h-233.376l-123.312-123.312c-3.056-3.056-7.152-4.688-11.312-4.688z" />
<glyph unicode="&#xe9c4;" d="M96 112h-32v32h-64v640h80v-32h-48v-576h64z" />
<glyph unicode="&#xe9c5;" d="M720 416h-144v224h144v-32h-112v-160h112z" />
<glyph unicode="&#xe9c6;" d="M496 768h32v-528h-32v528z" />
<glyph unicode="&#xe9c7;" d="M272 544h-32v160c0 8.544-3.328 16.576-9.376 22.624-12.096 12.096-33.152 12.096-45.248 0-6.048-6.048-9.376-14.080-9.376-22.624v-160h-32v160c0 17.088 6.656 33.168 18.752 45.248 24.176 24.192 66.336 24.192 90.496 0 12.096-12.080 18.752-28.16 18.752-45.248v-160z" />
<glyph unicode="&#xe9c8;" d="M160 672h96v-32h-96v32z" />
<glyph unicode="&#xe9c9;" d="M848 288h-32c0 26.464-21.536 48-48 48h-16v576h16c44.112 0 80-35.888 80-80v-544zM784 366.384c11.808-2.4 22.688-7.424 32-14.416v480.032c0 20.864-13.376 38.656-32 45.264v-510.88z" />
<glyph unicode="&#xe9ca;" d="M768 208v32c26.464 0 48 21.536 48 48h32c0-44.112-35.888-80-80-80z" />
<glyph unicode="&#xe9cb;" d="M512 137.376l-70.624 70.624h-377.376v640h390.624l57.376-57.376 57.376 57.376h150.624v-32h-137.376l-70.624-70.624-70.624 70.624h-345.376v-576h358.624l57.376-57.376 57.376 57.376h358.624v576h-96v32h128v-640h-377.376z" />
<glyph unicode="&#xe9cc;" d="M832 704h48v-32h-48v32z" />
<glyph unicode="&#xe9cd;" d="M832 768h48v-32h-48v32z" />
<glyph unicode="&#xe9ce;" d="M832 640h48v-32h-48v32z" />
<glyph unicode="&#xe9cf;" d="M832 512h48v-32h-48v32z" />
<glyph unicode="&#xe9d0;" d="M832 576h48v-32h-48v32z" />
<glyph unicode="&#xe9d1;" d="M832 448h48v-32h-48v32z" />
<glyph unicode="&#xe9d2;" d="M832 384h48v-32h-48v32z" />
<glyph unicode="&#xe9d3;" d="M832 320h48v-32h-48v32z" />
<glyph unicode="&#xe9d4;" d="M304 768h144v-32h-144v32z" />
<glyph unicode="&#xe9d5;" d="M304 704h144v-32h-144v32z" />
<glyph unicode="&#xe9d6;" d="M576 704h144v-32h-144v32z" />
<glyph unicode="&#xe9d7;" d="M576 768h144v-32h-144v32z" />
<glyph unicode="&#xe9d8;" d="M304 640h144v-32h-144v32z" />
<glyph unicode="&#xe9d9;" d="M304 576h144v-32h-144v32z" />
<glyph unicode="&#xe9da;" d="M144 512h304v-32h-304v32z" />
<glyph unicode="&#xe9db;" d="M144 448h304v-32h-304v32z" />
<glyph unicode="&#xe9dc;" d="M144 320h304v-32h-304v32z" />
<glyph unicode="&#xe9dd;" d="M576 320h144v-32h-144v32z" />
<glyph unicode="&#xe9de;" d="M576 384h144v-32h-144v32z" />
<glyph unicode="&#xe9df;" d="M288 384h32v-32h-32v32z" />
<glyph unicode="&#xe9e0;" d="M352 384h32v-32h-32v32z" />
<glyph unicode="&#xe9e1;" d="M416 384h32v-32h-32v32z" />
<glyph unicode="&#xe9e2;" d="M992 240c0-167.895-136.105-304-304-304s-304 136.105-304 304c0 167.895 136.105 304 304 304s304-136.105 304-304z" />
<glyph unicode="&#xe9e3;" d="M368 784c0-70.692-57.308-128-128-128s-128 57.308-128 128c0 70.692 57.308 128 128 128s128-57.308 128-128z" />
<glyph unicode="&#xe9e4;" d="M1008 64h-256v32h224v720h32z" />
<glyph unicode="&#xe9e5;" d="M272 64h-256v752h32v-720h224z" />
<glyph unicode="&#xe9e6;" d="M1008 800h-992v160h992v-160zM48 832h928v96h-928v-96z" />
<glyph unicode="&#xe9e7;" d="M80 896h32v-32h-32v32z" />
<glyph unicode="&#xe9e8;" d="M144 896h32v-32h-32v32z" />
<glyph unicode="&#xe9e9;" d="M208 896h32v-32h-32v32z" />
<glyph unicode="&#xe9ea;" d="M272 896h672v-32h-672v32z" />
<glyph unicode="&#xe9eb;" d="M944 128h-192v32h160v576h-800v-576h160v-32h-192v640h864z" />
<glyph unicode="&#xe9ec;" d="M672 400v32c73.6 0 134.4 56 142.4 128h-33.6c-6.4-27.2-32-48-62.4-48h-32v32h32c17.6 0 32 14.4 32 32v16h96v-16c1.6-97.6-76.8-176-174.4-176z" />
<glyph unicode="&#xe9ed;" d="M352 400c-97.6 0-176 78.4-176 176v16h96v-16c0-17.6 14.4-32 32-32h32v-32h-32c-30.4 0-54.4 20.8-62.4 48h-33.6c8-72 68.8-128 142.4-128v-32h1.6z" />
<glyph unicode="&#xe9ee;" d="M448 208c0 0 0 57.6-27.2 84.8-60.8 60.8-116.8 142.4-116.8 331.2h32c0-166.4 43.2-244.8 107.2-308.8 36.8-36.8 36.8-104 36.8-107.2h-32z" />
<glyph unicode="&#xe9ef;" d="M576 208h-32c0 3.2 0 70.4 36.8 107.2 64 64 107.2 140.8 107.2 308.8h32c0-188.8-56-270.4-116.8-331.2-22.4-22.4-27.2-68.8-27.2-84.8z" />
<glyph unicode="&#xe9f0;" d="M592 140.8l-12.8 51.2h-134.4l-12.8-51.2-32 6.4 19.2 76.8h185.6l19.2-76.8z" />
<glyph unicode="&#xe9f1;" d="M752 608h-480v96h480v-96zM304 640h416v32h-416v-32z" />
<glyph unicode="&#xe9f2;" d="M528 400h-32v112h-32v32h64z" />
<glyph unicode="&#xe9f3;" d="M464 416h96v-32h-96v32z" />
<glyph unicode="&#xe9f4;" d="M720-16h-32v121.6l-22.4 22.4h-307.2l-22.4-22.4v-121.6h-32v134.4l41.6 41.6h332.8l41.6-41.6z" />
<glyph unicode="&#xe9f5;" d="M752-64h-32v32h-416v-32h-32v64h480z" />
<glyph unicode="&#xe9f6;" d="M432 96h32v-32h-32v32z" />
<glyph unicode="&#xe9f7;" d="M496 96h32v-32h-32v32z" />
<glyph unicode="&#xe9f8;" d="M560 96h32v-32h-32v32z" />
<glyph unicode="&#xe9f9;" glyph-name="research" d="M1008.221 23.83l-66.504 66.504c20.463 30.694 30.694 66.504 30.694 102.314 0 112.545-92.082 204.627-204.627 204.627s-204.627-92.082-204.627-204.627 92.082-204.627 204.627-204.627c35.81 0 71.62 10.231 102.314 30.694l66.504-66.504c10.231-10.231 40.925-30.694 71.62 0 20.463 20.463 20.463 51.157 0 71.62zM767.784 90.334c-56.273 0-102.314 46.041-102.314 102.314s46.041 102.314 102.314 102.314 102.314-46.041 102.314-102.314-46.041-102.314-102.314-102.314zM767.784 960h-716.196c-30.694 0-51.157-20.463-51.157-51.157v-920.823c0-30.694 20.463-51.157 51.157-51.157h547.378c-81.851 56.273-138.123 148.355-138.123 255.784 0 168.818 138.123 306.941 306.941 306.941 15.347 0 35.81 0 51.157-5.116v414.37c0 30.694-20.463 51.157-51.157 51.157zM409.686 550.745h-255.784c-30.694 0-51.157 25.578-51.157 51.157 0 30.694 20.463 51.157 51.157 51.157h255.784c30.694 0 51.157-20.463 51.157-51.157 0-25.578-20.463-51.157-51.157-51.157zM665.471 755.373h-511.568c-30.694 0-51.157 25.578-51.157 51.157 0 30.694 20.463 51.157 51.157 51.157h511.568c30.694 0 51.157-20.463 51.157-51.157 0-25.578-20.463-51.157-51.157-51.157z" />
<glyph unicode="&#xe9fa;" glyph-name="download" d="M789.291-64c-8.789 0-17.152 3.584-23.211 9.941l-202.667 213.333c-19.371 20.395-4.821 54.059 23.211 54.059h96v181.333c0 29.397 23.936 53.333 53.333 53.333h106.667c29.397 0 53.333-23.936 53.333-53.333v-181.333h96c28.032 0 42.581-33.621 23.211-54.059l-202.667-213.333c-6.059-6.357-14.464-9.941-23.211-9.941zM530.347 284.16c-8.96-5.973-17.067-12.373-25.6-19.2 7.253 7.68 16.213 14.080 25.6 19.2zM767.147 955.307c-110.507 16.213-208.213-10.24-297.813-80.64-89.6 70.4-187.307 96.853-297.813 80.64-37.12-5.12-64.853-37.12-64.853-73.813v-468.053c0-20.907 8.96-40.96 24.747-55.040 15.787-14.507 37.547-21.333 58.88-18.773 67.84 7.68 133.547-6.4 194.133-40.96 22.187-11.947 43.52-27.307 64-45.227 5.973-5.547 13.227-8.107 20.907-8.107s14.933 2.56 20.907 8.107c4.267 3.84 8.96 7.68 13.653 11.093 0.427 0.427 0.427 0.427 0.853 0.427 8.533 6.827 16.64 13.227 25.6 19.2 0.427 0 0.427 0.427 0.853 0.427 7.68 5.12 15.36 9.813 23.040 14.080 14.080 8.107 28.587 14.933 43.093 20.48v68.267c-44.8-14.080-87.893-37.12-128-68.693-73.387 57.173-156.16 87.040-242.773 87.040-14.507 0-28.587-0.853-43.52-2.56-4.693-0.427-7.68 1.707-8.96 2.987-2.133 1.707-3.413 4.267-3.413 7.253v468.053c0 5.12 4.267 9.813 9.813 10.667 101.12 14.933 186.027-11.947 267.947-83.2 11.947-10.667 29.867-10.667 41.813 0 81.92 71.253 166.827 97.707 267.947 83.2 5.547-0.853 9.813-5.547 9.813-10.667v-348.16h64v348.16c0 36.693-27.733 68.693-64.853 73.813zM554.24 298.667c-7.68-4.267-15.36-8.96-23.040-14.080-0.427 0-0.427-0.427-0.853-0.427-8.96-5.973-17.067-12.373-25.6-19.2-0.427 0-0.427 0-0.853-0.427-8.533-8.533-16.213-18.347-21.76-29.867h-407.467c-40.96 0-74.667 33.707-74.667 74.667v490.667c0 40.96 33.28 74.24 74.24 74.667h53.76c17.493 0 32-14.080 32-32 0-17.493-14.080-32-32-32h-53.333c-5.973 0-10.667-5.12-10.667-10.667v-490.667c0-5.973 4.693-10.667 10.667-10.667zM938.667 800v-305.067c-17.493 16.64-39.68 29.013-64 34.133v270.933c0 5.973-4.693 10.667-10.667 10.667h-53.333c-17.493 0-32 14.507-32 32s14.507 32 32 32h53.333c40.96 0 74.667-33.707 74.667-74.667zM469.333 245.333c-17.664 0-32 14.336-32 32v554.667c0 17.664 14.336 32 32 32s32-14.336 32-32v-554.667c0-17.664-14.336-32-32-32z" />
<glyph unicode="&#xe9fb;" glyph-name="clock" d="M512 917.333c-259.206 0-469.333-210.128-469.333-469.333s210.128-469.333 469.333-469.333c259.206 0 469.333 210.128 469.333 469.333v0c-0.315 259.079-210.255 469.018-469.303 469.333h-0.030zM512 64c-212.077 0-384 171.923-384 384s171.923 384 384 384c212.077 0 384-171.923 384-384v0c-0.267-211.97-172.030-383.733-383.974-384h-0.026zM554.667 465.664v238.336c0 23.564-19.103 42.667-42.667 42.667s-42.667-19.103-42.667-42.667v0-256c0.003-11.781 4.78-22.446 12.501-30.165l128-128c7.665-7.41 18.12-11.977 29.641-11.977 23.564 0 42.667 19.103 42.667 42.667 0 11.521-4.567 21.976-11.989 29.653l0.012-0.012z" />
<glyph unicode="&#xe9fc;" d="M997.506 586.627l-316.328 45.967-141.465 286.638c-5.666 11.476-16.689 17.225-27.712 17.225l0.041-824.559 282.888-148.738c22.685-11.909 49.16 7.335 44.834 32.574l-54.023 315.071 228.886 223.117c18.358 17.884 8.221 49.016-17.122 52.704z" />
<glyph unicode="&#xe9fd;" d="M719.315 332.377s48.789-284.392 48.954-285.34c-0.165 0.021-252.292 63.871-256.227 64.86-0.041 0.021-282.971-148.738-282.971-148.738-22.685-11.909-49.16 7.335-44.834 32.574l54.023 315.071-228.886 223.117c-18.358 17.884-8.221 49.016 17.122 52.704l316.328 45.967 141.465 286.638c5.666 11.476 16.689 17.225 27.712 17.225l128.134-360.358 286.515-41.64z" />
<glyph unicode="&#xe9fe;" glyph-name="quote" d="M415.602 816h-385.602c-16.57 0-30-13.43-30-30v-385.602c0-16.57 13.43-30 30-30h162.797v-259.203c0-16.563 13.43-30 30-30h96.406c12.914 0 24.375 8.266 28.453 20.516l96.398 289.203c1.023 3.055 1.547 6.258 1.547 9.484v385.602c0 16.57-13.43 30-30 30zM994 816h-385.602c-16.57 0-30-13.43-30-30v-385.602c0-16.57 13.43-30 30-30h162.805v-259.203c0-16.563 13.43-30 30-30h96.398c12.914 0 24.375 8.266 28.461 20.516l96.398 289.203c1.016 3.055 1.539 6.258 1.539 9.484v385.602c0 16.57-13.43 30-30 30z" />
<glyph unicode="&#xe9ff;" glyph-name="right-arrow-1" d="M1007.633 487.786l-369.803 369.811c-10.556 10.556-24.626 16.351-39.628 16.351-15.019 0-29.080-5.803-39.636-16.351l-33.575-33.584c-10.548-10.54-16.359-24.617-16.359-39.628 0-15.002 5.811-29.554 16.359-40.094l215.738-216.212h-685.408c-30.903 0-55.321-24.193-55.321-55.104v-47.478c0-30.911 24.418-57.543 55.321-57.543h687.856l-218.177-217.419c-10.548-10.556-16.359-24.251-16.359-39.261 0-14.994 5.811-28.888 16.359-39.436l33.575-33.475c10.556-10.556 24.617-16.309 39.636-16.309 15.002 0 29.071 5.828 39.628 16.384l369.803 369.803c10.581 10.59 16.401 24.726 16.359 39.753 0.033 15.077-5.778 29.221-16.367 39.794z" />
<glyph unicode="&#xea00;" glyph-name="calendar" d="M154.738-64h714.524c74.904 0 135.775 60.872 135.775 135.775v676.599c0 74.904-60.872 135.775-135.775 135.775h-53.854v37.925c0 20.86-17.069 37.925-37.928 37.925s-37.925-17.066-37.925-37.925v-37.925h-455.109v37.925c0 20.86-17.069 37.925-37.928 37.925s-37.925-17.066-37.925-37.925v-37.925h-53.854c-74.904 0-135.775-60.872-135.775-135.775v-676.599c0-74.904 60.872-135.775 135.775-135.775zM94.816 748.374c0 32.995 26.927 59.922 59.922 59.922h53.854v-37.925c0-20.86 17.066-37.925 37.925-37.925s37.925 17.066 37.925 37.925v37.925h455.112v-37.925c0-20.86 17.066-37.925 37.925-37.925s37.925 17.066 37.925 37.925v37.925h53.854c32.995 0 59.922-26.927 59.922-59.922v-676.599c0-32.995-26.927-59.922-59.922-59.922h-714.521c-32.995 0-59.922 26.927-59.922 59.922zM341.333 571.26c0-26.182-21.225-47.407-47.407-47.407s-47.407 21.225-47.407 47.407c0 26.182 21.225 47.407 47.407 47.407s47.407-21.225 47.407-47.407zM549.925 571.26c0-26.182-21.225-47.407-47.407-47.407s-47.407 21.225-47.407 47.407c0 26.182 21.225 47.407 47.407 47.407s47.407-21.225 47.407-47.407zM758.517 571.26c0-26.182-21.225-47.407-47.407-47.407s-47.407 21.225-47.407 47.407c0 26.182 21.225 47.407 47.407 47.407s47.407-21.225 47.407-47.407zM341.333 381.631c0-26.182-21.225-47.407-47.407-47.407s-47.407 21.225-47.407 47.407c0 26.182 21.225 47.407 47.407 47.407s47.407-21.225 47.407-47.407zM549.925 381.631c0-26.182-21.225-47.407-47.407-47.407s-47.407 21.225-47.407 47.407c0 26.182 21.225 47.407 47.407 47.407s47.407-21.225 47.407-47.407zM758.517 381.631c0-26.182-21.225-47.407-47.407-47.407s-47.407 21.225-47.407 47.407c0 26.182 21.225 47.407 47.407 47.407s47.407-21.225 47.407-47.407zM341.333 192.002c0-26.182-21.225-47.407-47.407-47.407s-47.407 21.225-47.407 47.407c0 26.182 21.225 47.407 47.407 47.407s47.407-21.225 47.407-47.407zM549.925 192.002c0-26.182-21.225-47.407-47.407-47.407s-47.407 21.225-47.407 47.407c0 26.182 21.225 47.407 47.407 47.407s47.407-21.225 47.407-47.407zM758.517 192.002c0-26.182-21.225-47.407-47.407-47.407s-47.407 21.225-47.407 47.407c0 26.182 21.225 47.407 47.407 47.407s47.407-21.225 47.407-47.407z" />
<glyph unicode="&#xea01;" d="M1024 448c0-282.77-229.23-512-512-512s-512 229.23-512 512c0 282.77 229.23 512 512 512s512-229.23 512-512z" />
<glyph unicode="&#xea02;" d="M954.182 448c0-244.21-197.972-442.182-442.182-442.182s-442.182 197.972-442.182 442.182c0 244.21 197.972 442.182 442.182 442.182s442.182-197.972 442.182-442.182z" />
<glyph unicode="&#xea03;" d="M954.182 448c0-244.21-197.972-442.182-442.182-442.182v0h-24.262l-262.167 262.167c50.58-33.053 112.516-52.715 179.045-52.715 0.464 0 0.927 0.001 1.39 0.003h-0.071c216.145 0 334.313 179.025 334.313 334.196 0 5.178 0 10.182-0.407 15.185 23.246 16.764 42.781 36.984 58.289 60.13l0.533 0.844c-19.687-8.846-42.527-15.369-66.449-18.433l-1.216-0.127c24.353 14.621 42.644 37.214 51.432 64.106l0.233 0.825 168.029-168.262c2.222-16.633 3.491-35.862 3.491-55.388 0-0.123 0-0.246 0-0.369v0.020z" />
<glyph unicode="&#xea04;" d="M798.429 625.629c-19.687-8.846-42.527-15.369-66.449-18.433l-1.216-0.127c24.353 14.621 42.644 37.214 51.432 64.106l0.233 0.825c-21.436-12.948-46.387-22.819-72.968-28.197l-1.505-0.254c-21.483 22.932-51.953 37.22-85.76 37.22-64.844 0-117.411-52.567-117.411-117.411 0-0.035 0-0.070 0-0.106v0.005c-0.003-0.331-0.005-0.723-0.005-1.116 0-9.086 0.998-17.939 2.89-26.456l-0.151 0.807c-97.89 4.953-183.999 51.516-241.617 122.218l-0.477 0.604c-10.118-17.002-16.099-37.488-16.099-59.372 0-40.567 20.553-76.333 51.814-97.454l0.416-0.265c-19.556 0.543-37.759 5.848-53.643 14.788l0.581-0.301v-1.28c0.113-56.605 40.068-103.846 93.308-115.179l0.772-0.138c-8.929-2.442-19.181-3.844-29.761-3.844-0.358 0-0.715 0.002-1.072 0.005h0.055c-0.576-0.011-1.254-0.018-1.934-0.018-7.201 0-14.231 0.727-21.023 2.111l0.674-0.115c15.659-46.965 58.641-80.472 109.634-81.8l0.155-0.003c-39.665-31.233-90.347-50.095-145.434-50.095-0.007 0-0.014 0-0.021 0h0.001c-0.536-0.005-1.17-0.008-1.805-0.008-9.27 0-18.401 0.595-27.357 1.748l1.060-0.111c50.58-33.053 112.516-52.715 179.045-52.715 0.464 0 0.927 0.001 1.39 0.003h-0.071c216.145 0 334.313 179.025 334.313 334.196 0 5.178 0 10.182-0.407 15.185 23.084 16.789 42.485 37.004 57.878 60.118l0.537 0.857z" />
<glyph unicode="&#xea05;" d="M1024 448c0-282.77-229.23-512-512-512s-512 229.23-512 512c0 282.77 229.23 512 512 512s512-229.23 512-512z" />
<glyph unicode="&#xea06;" d="M954.182 448c0-244.21-197.972-442.182-442.182-442.182s-442.182 197.972-442.182 442.182c0 244.21 197.972 442.182 442.182 442.182s442.182-197.972 442.182-442.182z" />
<glyph unicode="&#xea07;" d="M946.56 366.196c-30.941-159.904-144.515-287.359-293.605-337.589l-3.122-0.913-189.673 189.556c2.114-1.267 4.663-2.016 7.388-2.016 0.369 0 0.735 0.014 1.097 0.041l-0.048-0.003h72.844c10.007 0 13.149 3.2 13.149 13.324v189.324h67.956c9.6 0 12.625 3.025 12.625 12.509q0 34.909 0 70.167c0 9.6-3.258 12.858-12.8 12.858h-67.607c0 17.92 0 34.909 0 52.364 0 16.291 8.32 24.029 24.087 24.029s31.244 0.524 46.895 0.64c8.378 0 11.636 3.491 11.636 11.636 0 22.109 0 44.276 0 66.385 0.030 0.321 0.046 0.693 0.046 1.070 0 2.905-1.004 5.575-2.684 7.682l0.019-0.025z" />
<glyph unicode="&#xea08;" d="M456.378 417.92v-64.349l-66.56 66.327c2.172-1.262 4.779-2.007 7.56-2.007 0.329 0 0.655 0.010 0.979 0.031l-0.044-0.002z" />
<glyph unicode="&#xea09;" d="M456.378 417.92h-57.833c-9.076 0-12.335 3.316-12.335 12.451q0 35.316 0 70.575c0 9.076 3.433 12.509 12.393 12.509h57.775v50.909c-0.036 1.137-0.057 2.475-0.057 3.817 0 22.645 5.91 43.909 16.271 62.335l-0.331-0.64c11.587 20.059 29.651 35.278 51.285 42.963l0.672 0.208c12.964 4.867 27.947 7.683 43.587 7.683 0.324 0 0.648-0.001 0.971-0.004h57.143c8.204 0 11.636-3.607 11.636-11.636v-66.385c0-8.32-3.491-11.636-11.636-11.636-15.651 0-31.302 0-46.895-0.64s-24.087-7.738-24.087-24.029c-0.349-17.455 0-34.56 0-52.364h67.375c9.542 0 12.8-3.258 12.8-12.858q0-34.909 0-70.167c0-9.484-3.025-12.451-12.625-12.509h-67.898v-189.324c0-10.124-3.142-13.324-13.149-13.324h-72.844c-8.785 0-12.218 3.433-12.218 12.218z" />
<glyph unicode="&#xea0a;" glyph-name="map" d="M363.313 798.375l-277.313-91.375c-13.141-4.324-22.016-16.603-22-30.437v-548.563c0.004-21.814 21.354-37.232 42.062-30.375l267.313 88.313 267.25-88.313c6.515-2.15 13.548-2.15 20.062 0 92.352 30.548 184.934 61.097 277.375 91.625 13.117 4.346 21.963 16.62 21.938 30.437v548.313c0.005 18.020-14.862 32.491-32.875 32-3.104-0.096-6.178-0.643-9.125-1.626l-267.313-88.062-267.312 88.062c-6.218 2.474-15.093 1.331-20.062 0.001zM341.313 723.75v-480.938l-213.313-70.563v481.188zM405.313 723.75l213.375-70.313v-481.188l-213.375 70.563zM896 723.75v-480.938l-213.313-70.5v481.125z" />
<glyph unicode="&#xea0b;" glyph-name="chat" d="M85.333 495.955c1.186-148.951 0.039-300.459 0-431.424-0.031-36.666 43.141-56.294 70.75-32.167l153 133.5c62.704-30.392 131.456-49.164 202.917-49.167 232.285 0 426.66 167.052 426.667 379.25-0.006 212.198-194.585 379.32-427.869 378.338s-425.47-167.576-425.465-378.33zM853.333 495.955c-0.005-159.585-149.472-293.917-341.333-293.917-67.877 0.003-134.221 17.552-190.167 49.917-15.793 9.148-35.655 7.238-49.417-4.75l-101.749-88.75c0.299 113.343 0.951 231.185 0 337.5-0.004 158.476 147.055 292.183 340.202 292.999s342.46-133.414 342.464-292.999zM341.25 619.205c0 0 0 0 0 0-23.564 0-42.666-19.102-42.666-42.666 0 0 0 0 0 0v0c0 0 0 0 0 0 0-23.564 19.102-42.666 42.666-42.666 0 0 0 0 0 0h341.5c0 0 0 0 0 0 23.564 0 42.666 19.102 42.666 42.666 0 0 0 0 0 0v0c0 0 0 0 0 0 0 23.564-19.102 42.666-42.666 42.666 0 0 0 0 0 0v0zM341.25 448.538c0 0 0 0 0 0-23.564 0-42.666-19.102-42.666-42.666 0 0 0 0 0 0v0c0 0 0 0 0 0 0-23.564 19.102-42.666 42.666-42.666 0 0 0 0 0 0h341.5c0 0 0 0 0 0 23.564 0 42.666 19.102 42.666 42.666 0 0 0 0 0 0v0c0 0 0 0 0 0 0 23.564-19.102 42.666-42.666 42.666 0 0 0 0 0 0v0z" />
<glyph unicode="&#xea0c;" glyph-name="right-arrow-2" d="M779.25 384.25h-779.25v127.5h779.25l-117.754 117.756 90.5 90.5 272.004-272.006-272.004-272.006-90.5 90.5z" />
<glyph unicode="&#xea0d;" glyph-name="top" d="M469.333 729.003l-225.835-225.835c-16.64-16.64-43.691-16.64-60.331 0s-16.64 43.691 0 60.331l298.667 298.667c16.64 16.683 43.691 16.683 60.331 0l298.667-298.667c16.64-16.64 16.64-43.691 0-60.331s-43.691-16.64-60.331 0l-225.835 225.835v-665.003c0-23.552-19.115-42.667-42.667-42.667s-42.667 19.115-42.667 42.667z" />
<glyph unicode="&#xea0e;" glyph-name="calendar-1" d="M288 896c-17.673 0-32-14.327-32-32v-32h-64c-70.358 0-128-57.642-128-128v-576c0-70.358 57.642-128 128-128h640c70.358 0 128 57.642 128 128v576c0 70.358-57.642 128-128 128h-64v32c0 17.673-14.327 32-32 32s-32-14.327-32-32v-32h-160v32c0 17.673-14.327 32-32 32s-32-14.327-32-32v-32h-160v32c0 17.673-14.327 32-32 32zM192 768h64v-32c0-17.673 14.327-32 32-32s32 14.327 32 32v32h160v-32c0-17.673 14.327-32 32-32s32 14.327 32 32v32h160v-32c0-17.673 14.327-32 32-32s32 14.327 32 32v32h64c36.010 0 64-27.99 64-64v-64h-768v64c0 36.010 27.99 64 64 64zM692.812 472.313c13.43-11.493 14.997-31.699 3.5-45.125l-192-224c-12.13-14.164-33.752-14.999-46.938-1.811l-128 128c-12.494 12.496-12.494 32.754 0 45.25 12.496 12.493 32.754 12.493 45.25 0l103.562-103.563 169.5 197.75c11.347 13.612 31.221 15.084 45.125 3.5z" />
<glyph unicode="&#xea0f;" glyph-name="university" d="M917.94 769.542l-405.94 164.25-405.942-164.25h-106.058v-108.324h1024v108.324zM963.166 70.532h-963.166v-108.324h1024v108.324zM961.626 516.11v84.276h-899.252v-84.276h30.418v-300.468h-30.418v-84.276h899.252v84.276h-30.418v300.468h30.418zM314.54 215.642h-48.582v300.468h48.582v-300.468zM536.292 215.642h-48.584v300.468h48.584v-300.468zM758.040 215.642h-48.582v300.468h48.582v-300.468z" />
<glyph unicode="&#xea10;" glyph-name="open-book" d="M555.356 211.095h3.612c4.58 3.305 9.624 5.913 14.969 7.742h6.709c4.026 1.897 8.456 2.782 12.902 2.581h6.709c5.049 1.645 10.229 2.852 15.484 3.612h3.615l18.581 2.581h282.322v591.484h-229.161c-85.515 0-154.839-69.324-154.839-154.839l2.064-462.968c5.323 3.852 11.030 7.14 17.035 9.806zM103.742 820.13v-1.033zM967.227 713.806v-508.387c0.007-0.348 0.007-0.697 0-1.043-0.288-12.825-10.919-22.986-23.741-22.698h-252.387c-130.065 0-154.839-37.677-154.839-94.452v-11.354c55.227 42.84 148.645 42.84 196.645 42.84h289.549l1.548 595.096h-56.775zM368.516 216.774h19.096l19.096-2.581h3.612l15.484-3.612h6.709c4.401-0.244 8.746-1.113 12.902-2.581h6.709l14.969-7.742h3.612c5.451-3.648 11.141-6.924 17.032-9.806v473.807c0 85.515-69.324 154.839-154.839 154.839h-229.157v-602.323h264.774zM332.903 180.128h-252.387c-12.888 0.527-23.216 10.853-23.741 23.741v509.937h-56.775v-594.066h287.485c51.612 0 145.549 0 200.775-43.87l-0.515 9.806c-0.002 56.775-25.81 94.452-154.841 94.452z" />
<glyph unicode="&#xea11;" glyph-name="success" d="M389.685 543.46l-28.914-164.585 151.226 77.632 151.226-77.632-28.914 164.585 123.281 117.281-170.241 24.14-75.351 149.030-75.351-149.030-170.241-24.14zM860.847 546.124c0.789 9.562 1.031 19.344 1.359 29.094 28.5 12.391 81.25 40.422 105.070 91.499 9.984 21.422 32.539 73.156-13.828 183.28-77.554-23.937-127.406-55.937-151.296-107.202-28.43-60.968-7.117-130.484 0.664-151.804-1.617-179.374-103.085-384.998-290.819-384.998-0.039 0-0.078-0.008-0.117-0.008-180.476 0-289.123 197.077-290.819 385.006 7.781 21.32 29.086 90.835 0.664 151.812-33.281 71.39-119.913 98.281-123.577 99.398l-25.719 7.789-10.547-24.695c-1.523-3.539-36.562-87.187-3.281-158.577 23.82-51.078 74.57-79.109 103.062-91.499 0.328-9.75 0.578-19.539 1.367-29.109-50.711 25.070-101.163 21.461-163.030 7.664 10.109-80.562 32.32-133.226 78.671-165.671 33.867-23.703 74.296-29.469 105.64-29.469 10.601 0 19.609 0.719 27.523 1.57 5.961-12.617 12.367-24.789 19.242-36.515-0.555 0.008-1.062 0.164-1.617 0.164-23.633 0-80.078-1.406-160.249-89.999 54.461-60.187 103.679-89.999 160.249-89.999 52.914 0 97.296 30.031 121.851 50.781 14.375-9.289 29.344-17.273 44.828-24.008-37.172-24.648-66.664-60.703-82.187-104.64l56.601-19.984c21.125 59.797 77.96 99.992 141.444 99.992 63.492 0 120.32-40.195 141.444-99.992l56.601 19.984c-15.531 43.961-45.039 80.023-82.234 104.671 15.469 6.727 30.422 14.711 44.773 23.984 24.547-20.75 68.945-50.789 121.866-50.789 23.64 0 80.078 1.437 160.28 89.999-54.5 60.187-103.726 89.999-160.28 89.999-0.57 0-1.078-0.156-1.641-0.164 6.867 11.726 13.273 23.898 19.234 36.515 7.922-0.852 16.937-1.578 27.555-1.578 31.351 0 73.781 5.773 107.617 29.476 19.359 13.555 61.914 47.117 76.789 165.671-108.999 24.312-151.538-1.906-163.155-7.648z" />
<glyph unicode="&#xea12;" glyph-name="diagonal-arrow" d="M204.799 960v-204.799h460.8l-665.599-665.602 153.599-153.599 665.602 665.602v-460.8h204.799v819.198z" />
<glyph unicode="&#xea13;" glyph-name="down-arrow-1" d="M957.772 392.34c-3.327 7.975-11.090 13.18-19.705 13.18h-233.692v533.154c0 11.772-9.555 21.327-21.327 21.327h-341.22c-11.772 0-21.327-9.555-21.327-21.327v-533.156h-234.588c-8.615 0-16.379-5.204-19.705-13.138-3.285-7.975-1.494-17.146 4.606-23.246l425.458-426.865c4.009-4.009 9.427-6.27 15.099-6.27s11.090 2.261 15.099 6.228l426.695 426.865c6.1 6.102 7.933 15.271 4.606 23.248z" />
<glyph unicode="&#xea14;" glyph-name="play-button" d="M109.715-63.998c-6.249 0-12.501 1.608-18.142 4.822-11.394 6.5-18.43 18.608-18.43 31.752v950.906c0 13.145 7.036 25.252 18.43 31.752 11.499 6.465 25.465 6.322 36.749-0.25l804.571-475.455c11.143-6.607 17.964-18.572 17.964-31.502s-6.82-24.894-17.964-31.502l-804.571-475.453c-5.751-3.359-12.18-5.072-18.608-5.070zM146.286 859.409v-822.762l696.109 411.38z" />
<glyph unicode="&#xea15;" glyph-name="agenda" d="M650.897 425.739h-322.317c-46.368 0-84.088-37.722-84.088-84.088v-76.526c0-36.586 29.766-66.35 66.352-66.35h357.793c36.588 0 66.354 29.766 66.354 66.35v76.526c-0.004 46.368-37.726 84.088-84.094 84.088zM668.633 243.295h-357.791c-12.036 0-21.832 9.792-21.832 21.828v76.526c0 21.818 17.75 39.566 39.566 39.566h322.319c21.818 0 39.566-17.75 39.566-39.566v-76.526h0.002c0.002-12.034-9.792-21.828-21.83-21.828zM527.747 737.77h-76.018c-47.206 0-85.61-38.404-85.61-85.61v-96.29c0.002-47.206 38.406-85.61 85.61-85.61h76.018c47.206 0 85.61 38.404 85.61 85.61v96.29c0 47.206-38.404 85.61-85.61 85.61zM568.837 555.871c0-22.658-18.432-41.090-41.090-41.090h-76.018c-22.658 0-41.088 18.432-41.088 41.090v96.29c0 22.658 18.432 41.090 41.090 41.090h76.018c22.658 0 41.090-18.432 41.090-41.090v-96.29zM939.45 715.13l80.812 121.218c4.554 6.83 4.98 15.614 1.106 22.854-3.876 7.236-11.42 11.756-19.63 11.756h-155.826v66.78c0 12.294-9.966 22.26-22.26 22.26h-801.392c-12.294 0-22.26-9.966-22.26-22.26v-979.476c0-12.294 9.966-22.26 22.26-22.26h801.39c12.294 0 22.26 9.966 22.26 22.26v601.043h155.826c8.21 0 15.754 4.518 19.628 11.756 3.874 7.24 3.448 16.022-1.106 22.854l-80.808 121.216zM801.39 848.694v-868.172h-623.303v665.599c0 12.294-9.966 22.26-22.26 22.26s-22.26-9.966-22.26-22.26v-665.599h-89.046v934.956h89.044v-133.566c0-12.294 9.966-22.26 22.26-22.26s22.26 9.966 22.26 22.26v133.566h623.303v-66.784zM845.912 603.825v222.61h114.232l-65.97-98.956c-4.986-7.478-4.986-17.218 0-24.696l65.97-98.956h-114.232zM155.826 735.686c-12.294 0-22.26-9.966-22.26-22.26v-0.488c0-12.294 9.966-22.26 22.26-22.26s22.26 9.966 22.26 22.26v0.488c0.002 12.292-9.966 22.26-22.26 22.26z" />
<glyph unicode="&#xea16;" glyph-name="phonebook" d="M392 148c-11.039 0-20-8.961-20-20s8.961-20 20-20 20 8.961 20 20-8.961 20-20 20zM964 828h-72v72c0 33.086-26.914 60-60 60h-692c-33.086 0-60-26.914-60-60v-72h-20c-33.148 0-60-26.852-60-60 0-33.086 26.914-60 60-60h20v-80h-20c-33.148 0-60-26.852-60-60 0-33.086 26.914-60 60-60h20v-120h-20c-33.148 0-60-26.852-60-60 0-33.086 26.914-60 60-60h20v-80h-20c-33.148 0-60-26.852-60-60 0-33.086 26.914-60 60-60h20v-72c0-33.086 26.914-60 60-60h692c33.086 0 60 26.914 60 60v72h72c33.086 0 60 26.914 60 60v160c0 15.359-5.805 29.375-15.328 40 9.523 10.625 15.328 24.641 15.328 40v160c0 15.359-5.805 29.375-15.328 40 9.523 10.625 15.328 24.641 15.328 40v160c0 33.086-26.914 60-60 60zM984 768v-160c0-11.031-8.969-20-20-20h-72v200h72c11.031 0 20-8.969 20-20zM984 528v-160c0-11.031-8.969-20-20-20h-72v200h72c11.031 0 20-8.969 20-20zM60 748c-11.031 0-20 8.969-20 20 0 11.039 8.953 20 20 20h20v-40zM60 548c-11.031 0-20 8.969-20 20 0 11.039 8.953 20 20 20h20v-40zM60 308c-11.031 0-20 8.969-20 20 0 11.039 8.953 20 20 20h20v-40zM60 108c-11.031 0-20 8.969-20 20 0 11.039 8.953 20 20 20h20v-40zM120-4v72h20c33.086 0 60 26.914 60 60 0 11.047-8.953 20-20 20s-20-8.953-20-20c0-11.031-8.969-20-20-20h-20v160h20c33.086 0 60 26.914 60 60 0 11.047-8.953 20-20 20s-20-8.953-20-20c0-11.031-8.969-20-20-20h-20v200h20c33.086 0 60 26.914 60 60 0 11.047-8.953 20-20 20s-20-8.953-20-20c0-11.031-8.969-20-20-20h-20v160h20c33.086 0 60 26.914 60 60 0 11.047-8.953 20-20 20s-20-8.953-20-20c0-11.031-8.969-20-20-20h-20v152c0 11.031 8.969 20 20 20h100v-944h-100c-11.031 0-20 8.969-20 20zM852-4c0-11.031-8.969-20-20-20h-552v944h552c11.031 0 20-8.969 20-20zM984 128c0-11.031-8.969-20-20-20h-72v200h72c11.031 0 20-8.969 20-20zM564.047 241.289c0.109-0.047 0.406-0.172 0.445-0.188 21.469-8.695 44.18-13.102 67.508-13.102 33.148 0 60 26.852 60 60v62.602c0 27.133-18.313 50.977-44.547 57.984l-55.453 14.781v209.266l55.461 14.789c26.227 7 44.539 30.844 44.539 57.977v62.602c0 33.086-26.914 60-60 60-99.039 0-180-80.234-180-180v-240c0-73.563 43.969-138.938 112.047-166.711zM637.141 369.937c8.75-2.336 14.859-10.289 14.859-19.336v-62.602c0-11.039-8.961-20-20-20-13.688 0-27.086 1.953-40 5.797v108.172zM652 768v-62.602c0-9.047-6.109-17-14.852-19.336l-45.148-12.031v108.172c12.914 3.844 26.313 5.797 40 5.797 11.031 0 20-8.969 20-20zM492 648c0 46.977 22.977 89.023 60 114.867v-469.836c-37.195 25.773-60 68.25-60 114.969zM752 148h-280c-11.047 0-20-8.953-20-20s8.953-20 20-20h280c11.047 0 20 8.953 20 20s-8.953 20-20 20z" />
<glyph unicode="&#xea17;" glyph-name="star" d="M916.75 540.648c-2.792 8.635-10.771 14.563-19.854 14.75l-274.583 5.583-90.167 258.625c-2.979 8.573-11.062 14.313-20.146 14.313s-17.167-5.74-20.146-14.312l-90.167-258.625-274.583-5.583c-9.083-0.188-17.063-6.115-19.854-14.75-2.812-8.646 0.188-18.125 7.437-23.604l218.812-165.396-79.521-262.031c-2.625-8.688 0.521-18.094 7.854-23.448 7.375-5.344 17.271-5.458 24.729-0.281l225.437 156.427 225.437-156.427c3.667-2.531 7.917-3.802 12.167-3.802 4.417 0 8.812 1.365 12.563 4.083 7.333 5.354 10.479 14.76 7.854 23.448l-79.521 262.031 218.812 165.396c7.25 5.479 10.25 14.958 7.438 23.604zM652.917 376.71c-7.146-5.396-10.146-14.656-7.563-23.219l66.021-217.583-187.208 129.906c-3.667 2.531-7.917 3.802-12.167 3.802s-8.5-1.271-12.167-3.802l-187.208-129.906 66.021 217.583c2.583 8.563-0.417 17.823-7.563 23.219l-181.604 137.281 227.917 4.625c8.917 0.188 16.771 5.896 19.708 14.312l74.896 214.844 74.896-214.844c2.937-8.417 10.792-14.125 19.708-14.312l227.917-4.625z" />
<glyph unicode="&#xea18;" d="M602.48 271.737l56.288 9.126c3.892 0.635 7.887 0 11.381-1.827l332.071-173.938c6.862-3.598 10.706-11.135 9.586-18.808-1.112-7.672-6.95-13.804-14.558-15.289l-689.685-134.663c-5.139-1.001-10.452 0.238-14.614 3.423l-270.264 206.685c-5.798 4.432-8.403 11.89-6.624 18.966s7.601 12.422 14.805 13.581l294.377 47.63z" />
<glyph unicode="&#xea19;" d="M586.412 195.029l59.901 9.785c3.908 0.651 7.919 0.008 11.437-1.827l126.236-66.168c6.862-3.598 10.706-11.143 9.586-18.816s-6.965-13.796-14.574-15.281l-453.193-88.399c-5.131-1.001-10.452 0.238-14.614 3.415l-109.581 83.8c-5.782 4.424-8.379 11.874-6.608 18.943s7.585 12.406 14.773 13.581l150.31 24.439z" />
<glyph unicode="&#xea1a;" d="M43.796 464.411c2.542 2.232 29.077-11.485 31.817-12.692 26.949-11.85 53.039-25.574 78.058-41.094 64.786-39.648 119.112-94.26 158.419-159.253 31.984-53.262 56.2-152.232 133.512-152.232 37.035 0 79.13-1.199 107.278 27.052 34.406 34.573 35.026 85.031 45.661 129.667 52.698 210.513 153.336 405.991 294.043 571.201 8.641 10.333 17.418 20.563 26.313 30.681 18.069 20.309 37.242 39.609 57.423 57.821 2.74 2.486 7.49 7.577 13.153 13.391 5.186 5.29 6.664 13.192 3.733 19.999-2.923 6.807-9.674 11.175-17.084 11.048-116.284-3.693-392.965-64.564-548.787-532.116 0 0-237.43 164.376-383.538 36.527z" />
<glyph unicode="&#xea1b;" d="M628.237 628.787c-3.098 0-6.139 0.786-8.84 2.303-8.816 4.893-11.993 16.004-7.108 24.82 92.982 167.386 204.064 224.309 208.678 226.652 9.023 4.535 20.007 0.905 24.55-8.109 4.535-9.023 0.905-20.007-8.109-24.55-1.39-0.707-106.182-55.208-193.135-211.712-3.233-5.822-9.38-9.428-16.036-9.404z" />
<glyph unicode="&#xea1c;" d="M573.442 537.473c-6.33 0-12.2 3.28-15.527 8.657-3.328 5.385-3.63 12.104-0.802 17.767l18.267 36.527c2.915 5.838 8.729 9.674 15.241 10.063 6.521 0.389 12.748-2.724 16.337-8.173 3.598-5.448 4.011-12.398 1.096-18.236l-18.267-36.527c-3.098-6.187-9.428-10.087-16.345-10.079z" />
<glyph unicode="&#xea1d;" glyph-name="3d-view" d="M861.856 492.228v-66.016c64.618-32.288 102.164-72.254 102.164-111.902 0-90.868-182.82-162.252-363.694-177.298-16.514-1.36-28.79-15.854-27.41-32.348 1.296-15.864 14.974-28.672 32.348-27.43 157.446 12.962 418.736 80.902 418.736 237.076 0 85.296-83.458 143.974-162.144 177.918zM331.642 238.872c-16.658 16.95-45.608 8.666-50.692-14.62l-13.254-60.692c-198.544 53.438-293.868 168.374-105.196 262.652v66.016c-247.572-106.8-208.722-307.398 92.38-387.348l-11.918-54.568c-5.11-23.396 18.076-43.186 40.438-34.242l149.948 59.98c19.836 7.932 25.272 33.576 10.256 48.862zM525.342 878.224c-9.248 5.242-20.576 5.194-29.78-0.12l-243.102-140.354c41.172-23.77 237.308-137.010 259.682-149.928l259.77 150.68zM222.472 405.098c0-10.716 5.716-20.614 14.994-25.972l244.722-141.29v298.024l-259.718 149.948v-280.71zM801.884 405.098v281.452l-259.716-150.65v-298.064l244.722 141.29c9.28 5.358 14.994 15.256 14.994 25.972z" />
<glyph unicode="&#xea1e;" glyph-name="leaf" d="M170.476 147.058c-0.597 6.123-5.718 10.869-11.947 10.869-6.627 0-12-5.373-12-12 0-0.507 0.031-1.007 0.092-1.497l-0.006 0.059c0.4-3.702 0.938-7.434 1.6-11.090 1.054-5.633 5.93-9.84 11.789-9.848h0.001c0.768 0.002 1.517 0.074 2.244 0.212l-0.076-0.012c5.638 1.056 9.847 5.939 9.847 11.805 0 0.762-0.071 1.507-0.207 2.229l0.012-0.074c-0.558 3.080-1.012 6.226-1.35 9.348zM164.85 86.868c17.043-30.298 43.125-53.795 74.551-67.17l1.009-0.382c1.359-0.58 2.94-0.917 4.6-0.917 6.628 0 12.001 5.373 12.001 12.001 0 4.968-3.019 9.231-7.322 11.054l-0.079 0.030c-27.369 11.609-49.377 31.435-63.422 56.348l-0.338 0.652c-2.088 3.718-6.005 6.189-10.5 6.189-6.628 0-12.002-5.373-12.002-12.002 0-2.134 0.557-4.137 1.533-5.873l-0.031 0.060zM288.726-43.718c99.508 5.699 178.044 87.784 178.044 188.212 0 73.020-41.519 136.344-102.238 167.65l-1.056 0.495v103.904h0.064c0.095-0.001 0.207-0.002 0.319-0.002 15.732 0 28.614 12.199 29.703 27.653l0.005 0.094c0.023 0.43 0.035 0.934 0.035 1.44 0 16.142-13.077 29.231-29.216 29.248h-72.988v53.386l3.282 0.074c69.815 1.618 128.164 48.872 146.477 113.014l0.269 1.1 3.624 13.028c0.279 0.964 0.439 2.072 0.439 3.217 0 6.627-5.373 12-12 12-0.095 0-0.189-0.001-0.283-0.003h0.014l-13.518-0.304c-53.842-1.269-100.8-29.602-127.931-71.876l-0.373-0.622v36.542l10.244 13.2c27.988 37.371 44.816 84.509 44.816 135.577s-16.828 98.206-45.241 136.171l0.425-0.594-12.064 16.254c-2.211 2.956-5.702 4.848-9.636 4.848s-7.425-1.893-9.614-4.817l-0.022-0.031-12.062-16.254c-27.988-37.371-44.816-84.509-44.816-135.577 0-51.020 16.796-98.117 45.16-136.063l-0.426 0.596 9.236-13.034v-36.986c-27.491 42.981-74.496 71.38-128.214 72.651l-0.186 0.003-13.52 0.304c-0.080 0.002-0.175 0.003-0.269 0.003-6.627 0-12-5.373-12-12 0-1.145 0.16-2.253 0.46-3.302l-0.021 0.085 3.626-13.028c18.584-65.23 76.921-112.476 146.541-114.099l0.183-0.003 3.384-0.076v-53.384h-74.318c-0.095 0.001-0.208 0.002-0.321 0.002-15.73 0-28.612-12.198-29.701-27.651l-0.005-0.094c-0.023-0.431-0.036-0.935-0.036-1.442 0-16.142 13.076-29.23 29.214-29.248h0.912v-103.906c-38.025-19.633-67.868-50.625-85.551-88.44l-0.487-1.16c-0.69-1.47-1.092-3.192-1.092-5.008 0-6.643 5.385-12.028 12.028-12.028 0.001 0 0.003 0 0.004 0h7.822c16.164 39.31 45.873 70.303 83.187 87.735l1.013 0.425c4.195 1.936 7.056 6.102 7.066 10.937v123.151c0.001 0.062 0.002 0.136 0.002 0.21 0 1.689-0.333 3.299-0.938 4.77l0.030-0.084c-1.861 4.38-6.125 7.397-11.094 7.4h-12.696c-0.028-0.001-0.062-0.001-0.095-0.001-2.541 0-4.668 1.769-5.218 4.143l-0.007 0.036c-0.065 0.31-0.103 0.667-0.103 1.032 0 2.883 2.336 5.221 5.219 5.224h75.182v-271.48c0-6.627 5.373-12 12-12s12 5.373 12 12v0 271.478h72.788c0.029 0.001 0.063 0.001 0.097 0.001 2.54 0 4.666-1.768 5.216-4.141l0.007-0.036c0.066-0.311 0.103-0.668 0.103-1.034 0-2.884-2.336-5.221-5.219-5.224h-12.632c-0.061 0.001-0.134 0.002-0.207 0.002-1.689 0-3.3-0.335-4.771-0.942l0.083 0.030c-4.372-1.865-7.382-6.125-7.386-11.090v0-123.444c0.020-4.853 2.9-9.028 7.041-10.929l0.075-0.031c57.233-26.575 96.209-83.56 96.209-149.65 0-90.846-73.646-164.492-164.492-164.492-43.853 0-83.698 17.16-113.186 45.132l0.073-0.069c-25.947 24.435-43.836 57.168-49.416 93.943l-0.112 0.901c-0.953 5.769-5.905 10.116-11.872 10.116-6.641 0-12.024-5.383-12.024-12.024 0-0.597 0.043-1.183 0.127-1.757l-0.008 0.065c14.228-91.217 92.182-160.208 186.268-160.304h0.010q5.254 0 10.552 0.282zM417.552 646.4c-16.071-53.175-63.626-91.631-120.489-93.88l-0.251-0.008c16.071 53.174 63.626 91.631 120.489 93.88l0.251 0.008zM141.126 646.4c57.114-2.257 104.669-40.714 120.498-92.959l0.242-0.929c-57.114 2.257-104.669 40.714-120.498 92.959l-0.242 0.929zM282.436 662.142l-2.6-3.366-2.164 3.052c-0.050 0.072-0.102 0.142-0.156 0.212-25.034 33.429-40.086 75.594-40.086 121.274s15.052 87.845 40.467 121.805l-0.38-0.531 2.428 3.272 2.428-3.272c25.035-33.428 40.088-75.593 40.088-121.273 0-45.637-15.024-87.764-40.395-121.707l0.381 0.533zM583.116 494.096c16.569 0 30 13.431 30 30s-13.431 30-30 30c-16.569 0-30-13.431-30-30v0c0.019-16.561 13.439-29.981 29.998-30h0.002zM583.116 530.096c3.314 0 6-2.686 6-6s-2.686-6-6-6c-3.314 0-6 2.686-6 6v0c0 3.314 2.686 6 6 6v0zM922.17 422.654c6.627 0 12 5.373 12 12s-5.373 12-12 12v0h-70.2l-44.458 76.44 43.764 51.886c1.718 2.061 2.761 4.738 2.761 7.658 0 6.627-5.373 12-12 12-3.636 0-6.894-1.617-9.094-4.171l-0.013-0.016-45.61-54.084h-91.832l-44.414 77.27 45.514 50.6c1.91 2.117 3.079 4.935 3.079 8.026 0 6.627-5.373 12-12 12-3.536 0-6.715-1.53-8.912-3.963l-0.009-0.011-47.746-53.090h-93.684l-47.948 53.106c-2.205 2.435-5.378 3.958-8.907 3.958-6.628 0-12-5.373-12-12 0-3.099 1.174-5.923 3.102-8.052l-0.009 0.010 45.67-50.584-44.346-76.812h-70.39c-6.627 0-12-5.373-12-12s5.373-12 12-12v0h70.372l45.288-78.838-45.278-79.034h-70.382c-6.627 0-12-5.373-12-12s5.373-12 12-12v0h70.4l44.466-77.016-46.008-53.738c-1.794-2.085-2.886-4.818-2.886-7.806 0-6.628 5.373-12.001 12.001-12.001 3.64 0 6.901 1.62 9.102 4.179l0.013 0.016 47.948 55.982h93.144l45.624-55.77c2.218-2.695 5.554-4.401 9.288-4.401 6.628 0 12.001 5.373 12.001 12.001 0 2.894-1.024 5.548-2.73 7.621l0.017-0.021-44 53.778 44.622 77.842h91.77l45.614-54.86c2.217-2.653 5.527-4.329 9.228-4.329 6.628 0 12.001 5.373 12.001 12.001 0 2.927-1.048 5.608-2.788 7.691l0.015-0.019-43.884 52.78 44.574 77.768zM493.654 524.8l45.258 78.4h90.488l45.304-78.816-45.266-78.384h-90.51zM629.4 264.58h-90.47l-45.262 78.4 45.27 79.020h90.5l45.262-78.4zM785.942 355.622h-90.47l-45.248 78.378 45.248 78.372h90.528l45.218-77.772zM583.096 369.342c-16.569 0-30-13.431-30-30s13.431-30 30-30c16.569 0 30 13.431 30 30v0c-0.019 16.561-13.439 29.981-29.998 30h-0.002zM583.096 333.342c-3.314 0-6 2.686-6 6s2.686 6 6 6c3.314 0 6-2.686 6-6v0c0-3.314-2.686-6-6-6v0zM740.72 464c-16.569 0-30-13.431-30-30s13.431-30 30-30c16.569 0 30 13.431 30 30v0c-0.019 16.561-13.439 29.981-29.998 30h-0.002zM740.72 428c-3.314 0-6 2.686-6 6s2.686 6 6 6c3.314 0 6-2.686 6-6v0c0-3.314-2.686-6-6-6v0z" />
<glyph unicode="&#xea1f;" glyph-name="fire-extinguisher" d="M332 513.4c-6.627 0-12-5.373-12-12v0-218.12c0-6.627 5.373-12 12-12s12 5.373 12 12v0 218.12c0 6.627-5.373 12-12 12v0zM332 559.54c-6.627 0-12-5.373-12-12v0-10.72c0-6.627 5.373-12 12-12s12 5.373 12 12v0 10.72c0 6.627-5.373 12-12 12v0zM389.020 831.44c0 18.336-14.864 33.2-33.2 33.2s-33.2-14.864-33.2-33.2c0-18.336 14.864-33.2 33.2-33.2v0c18.327 0.022 33.178 14.873 33.2 33.198v0.002zM355.82 822.24c-5.081 0-9.2 4.119-9.2 9.2s4.119 9.2 9.2 9.2c5.081 0 9.2-4.119 9.2-9.2v0c-0.007-5.078-4.122-9.193-9.199-9.2h-0.001zM883.63 851.48c-0.262 0.007-0.57 0.011-0.879 0.011-14.371 0-26.692-8.777-31.895-21.263l-0.084-0.228h-204.2c-5.151 12.698-17.387 21.49-31.677 21.49-0.296 0-0.59-0.004-0.884-0.011l0.043 0.001c-0.095 0.001-0.208 0.001-0.321 0.001-19.735 0-35.734-15.999-35.734-35.734 0-0.094 0-0.188 0.001-0.282v0.014-1.48h-86v14.74c0 17.644-15.256 31.26-32.9 31.26h-9c-12.649 40.81-50.057 69.937-94.268 69.937-48.989 0-89.625-35.764-97.224-82.607l-0.076-0.567c-34.766-7.964-79.882-25.298-112.958-63.058-32.016-36.55-45.774-83.436-40.868-139.346 1.856-19.257 16.521-34.594 35.289-37.461l0.233-0.029c6.288-30.064 15.894-59.53 26.042-90.542 18.82-57.52 38.284-117 38.1-187.108-0.21-79.746-26.634-161.466-80.782-249.83-1.11-1.785-1.768-3.95-1.768-6.27 0-6.628 5.373-12 12-12 4.308 0 8.086 2.27 10.202 5.679l0.030 0.051c126.824 206.968 83.368 339.772 45.028 456.95-9.778 29.88-19.050 58.282-25.090 86.65 14.12 6.804 23.69 21.005 23.69 37.441 0 1.306-0.060 2.597-0.179 3.872l0.012-0.163c-2.862 32.8 3.812 58.030 20.4 77.102 20.724 23.824 52.75 33.898 73.644 38.098 18.115-20.793 44.639-33.86 74.215-33.86 4.31 0 8.555 0.277 12.719 0.816l-0.492-0.052v-56.246c-56-16.092-98-69.104-98-129.538v-529.86c0.252-28.79 23.638-52.035 52.458-52.060h214.642c28.672 0 52.9 23.386 52.9 52.060v529.92c0 60.318-42 113.256-98 129.446v46.574h86v-5.060c-0.001-0.086-0.001-0.187-0.001-0.288 0-19.834 16.078-35.912 35.912-35.912 0.049 0 0.098 0 0.147 0h-0.008c0.314-0.010 0.683-0.016 1.053-0.016 14.175 0 26.319 8.699 31.383 21.050l0.082 0.226h204.2c5.914-14 18.67-21.27 32.988-21.27 0.039 0 0.086 0 0.132 0 19.944 0 36.112 16.168 36.112 36.112 0 0.035 0 0.069 0 0.104v-0.005 96.54c0 0.001 0 0.001 0 0.002 0 19.882-16.118 36-36 36-0.13 0-0.26-0.001-0.39-0.002h0.020zM189.8 744.456c-21.088-24.246-29.66-55.3-26.2-94.956 0.047-0.482 0.074-1.041 0.074-1.607 0-8.82-6.535-16.114-15.028-17.302l-0.092-0.011c-0.296-0.038-0.6-0.080-0.934-0.108-0.448-0.040-0.968-0.064-1.494-0.064-9.168 0-16.698 7.016-17.513 15.971l-0.005 0.068c-4.304 49.146 7.476 90 35.012 121.444 27.852 31.8 66.918 46.926 94.168 53.978 1.212-12.467 4.596-23.887 9.775-34.254l-0.255 0.564c-23.79-5.954-55.382-18.298-77.508-43.724zM355.814 756.94c-0.004 0-0.008 0-0.012 0-41.139 0-74.488 33.349-74.488 74.488 0 0.004 0 0.009 0 0.013v-0.001c0 1.53 0.050 3.012 0.158 4.616 2.5 39.11 34.833 69.883 74.353 69.883 35.866 0 65.811-25.345 72.904-59.102l0.085-0.485v-0.014c0.965-4.495 1.517-9.659 1.517-14.952 0-41.116-33.332-74.448-74.448-74.448-0.024 0-0.048 0-0.073 0h0.004zM566 404h-124v48h124zM578 748h-98.9c-6.628 0-11.1-5.814-11.1-12.44v-67.56c0 0 0 0 0 0 0-5.778 4.083-10.602 9.522-11.744l0.078-0.014c50.72-10.773 88.246-55.113 88.4-108.245v-71.997h-135.42c-0.004 0-0.008 0-0.012 0-6.772 0-12.293-5.351-12.567-12.055l-0.001-0.025v-184.18c0-6.627 5.373-12 12-12s12 5.373 12 12v0 100.26h124v-58h-73.12c-6.627 0-12-5.373-12-12s5.373-12 12-12v0h73.12v-26h-73.12c-6.627 0-12-5.373-12-12s5.373-12 12-12v0h73.12v-26h-73.12c-6.627 0-12-5.373-12-12s5.373-12 12-12v0h73.12v-56h-124v83.038c0 6.627-5.373 12-12 12s-12-5.373-12-12v0-94.278c0.219-6.895 5.702-12.441 12.551-12.759l0.029-0.001h135.42v-99.94c0-15.44-13.46-28.060-28.9-28.060h-214.64c-15.575 0.008-28.225 12.518-28.46 28.038v529.882c0.26 53.137 37.788 97.435 87.772 108.11l0.728 0.13h-0.252c5.576 0.991 9.755 5.801 9.755 11.588 0 0.089-0.001 0.177-0.003 0.265v-0.013 71.816c36.686 14.991 62.107 50.312 62.32 91.597v0.027c0 1.522-0.044 3.042-0.114 4.56h4.894c4.4 0 8.9-2.848 8.9-7.26v-27.64c-0.011-0.178-0.017-0.387-0.017-0.597 0-5.81 4.71-10.52 10.52-10.52 0.21 0 0.419 0.006 0.626 0.018l-0.029-0.001h98.9zM626 716.628c-2-5.836-5.892-10.188-11.85-10.188-6.72 0.038-12.153 5.494-12.153 12.22 0 0.099 0.001 0.197 0.003 0.295v-0.015 96.54c-0.002 0.083-0.003 0.182-0.003 0.28 0 6.725 5.433 12.182 12.15 12.22h0.004c5.958 0 9.85-4.35 11.85-10.188zM682 728h-32v78h32zM736 728h-30v78h30zM792 728h-32v78h32zM848 728h-32v78h32zM896 718.94c0.001-0.052 0.001-0.113 0.001-0.174 0-3.371-1.359-6.424-3.558-8.643l0.001 0.001c-2.141-2.266-5.165-3.678-8.519-3.684h-0.001c-5.968 0-11.924 4.352-11.924 10.188v101.172c0 5.836 5.89 10.188 11.86 10.188 6.715-0.038 12.144-5.49 12.144-12.21 0-0.105-0.001-0.209-0.004-0.314v0.015z" />
<glyph unicode="&#xea20;" glyph-name="double-tick" d="M496.939 191.573l-211.201 211.157 60.288 60.373 150.913-150.912 362.027 362.069 60.331-60.331-422.4-422.4zM315.903 191.573l-211.2 211.157 60.331 60.373 211.2-211.2-60.288-60.331zM496.939 372.565l-60.373 60.331 271.531 271.53 60.373-60.331-271.531-271.488z" />
<glyph unicode="&#xea21;" glyph-name="mortarboard" d="M1018.266 222.151c-7.535 18.085-21.911 32.461-39.996 39.996v259.405c3.457 5.174 5.792 11.012 6.857 17.141-0.080 11.644-6.709 22.25-17.141 27.426l-463.959 207.981c-7.22 3.486-15.635 3.486-22.855 0l-463.959-207.981c-11.070-4.442-17.998-15.53-17.141-27.426 0.105-11.789 8.046-22.065 19.427-25.141l158.843-54.852v-205.696c0-8.992 4.234-17.46 11.428-22.855 7.591-5.582 17.514-6.877 26.283-3.428 178.013 66.291 373.938 66.291 551.951 0l10.285-2.286c5.803 0.163 11.405 2.163 15.999 5.714 7.941 4.854 12.722 13.548 12.57 22.855v206.839l114.276 37.711v-235.408c-37.867-15.778-55.774-59.267-39.996-97.134s59.267-55.774 97.134-39.996c37.867 15.78 55.774 59.267 39.996 97.134z" />
<glyph unicode="&#xea22;" glyph-name="send" d="M927.584 839.2c-4.256 17.824-23.84 29.952-41.6 23.648 0 0-769.312-271.52-769.44-271.616-11.808-4.384-20.48-15.648-21.12-28.544-0.576-12.384 7.072-25.28 18.368-30.528l297.984-139.104s145.184 145.184 145.44 145.44c28.8 28.8 74.784-15.744 45.248-45.248l-145.44-145.44s138.912-297.664 139.168-298.144c5.664-10.88 16.736-17.792 28.896-18.336 13.216-0.608 25.44 9.504 30.176 21.344 0 0 271.36 768.864 271.52 769.344 2.016 5.536 2.144 11.52 0.8 17.184z" />
<glyph unicode="&#xea23;" glyph-name="rotating-arrow-symbol" d="M907.19 778.313c-33.567 39.733-73.144 74.337-117.545 102.465-81.799 51.827-176.442 79.222-273.691 79.222-136.761 0-265.336-53.257-362.040-149.961s-149.961-225.279-149.961-362.038 53.257-265.338 149.961-362.040c96.704-96.702 225.279-149.959 362.040-149.959 105.077 0 206.065 31.61 292.047 91.412 83.951 58.395 147.925 139.434 185.006 234.352l-116.414 45.478c-58.435-149.597-200-246.261-360.643-246.261-213.404 0-387.022 173.615-387.022 387.022s173.62 387.019 387.024 387.019c108.018 0 207.902-43.887 279.642-119.116l-136.030-76.076 354.831-211.391 2.822 206.492 2.831 206.492-112.859-63.114z" />
</font>
</defs>
</svg>
